<?xml version="1.0" encoding="UTF-8"?>
<svg id="Warstwa_1" data-name="Warstwa 1" xmlns="http://www.w3.org/2000/svg" xmlns:xlink="http://www.w3.org/1999/xlink" viewBox="0 0 1440 1024">
  <defs>
    <style>
      .cls-1 {
        fill: #fff;
      }

      .cls-2 {
        fill: none;
      }

      .cls-3 {
        fill: #ecf9ff;
      }

      .cls-4 {
        opacity: .3;
      }

      .cls-5, .cls-6 {
        fill: #259fd8;
      }

      .cls-6 {
        fill-rule: evenodd;
      }

      .cls-7 {
        clip-path: url(#clippath);
      }
    </style>
    <clipPath id="clippath">
      <rect class="cls-2" x="52" y="61" width="304" height="71"/>
    </clipPath>
  </defs>
  <rect class="cls-3" width="1440" height="1024"/>
  <rect class="cls-1" width="436" height="1024"/>
  <path class="cls-6" d="M0,145h350c19.88,0,36-16.12,36-36v-23c0-19.88-16.12-36-36-36H0v95Z"/>
  <path d="M126.9,603v-21.82h4.61v9.62h.29l7.85-9.62h5.53l-8.1,9.77,8.19,12.05h-5.52l-5.98-8.97-2.27,2.77v6.2h-4.61ZM148.52,603v-16.36h4.54v16.36h-4.54ZM150.8,584.53c-.68,0-1.25-.22-1.74-.67-.48-.46-.71-1-.71-1.63s.24-1.16.71-1.61c.48-.45,1.06-.68,1.74-.68s1.25.23,1.73.68c.48.45.72.98.72,1.61s-.24,1.17-.72,1.63c-.48.45-1.05.67-1.73.67ZM162.72,603.27c-1.24,0-2.37-.32-3.38-.96-1-.65-1.8-1.59-2.39-2.84-.58-1.26-.87-2.8-.87-4.62s.3-3.43.9-4.68c.6-1.25,1.41-2.18,2.41-2.8,1.01-.62,2.11-.94,3.31-.94.92,0,1.68.16,2.29.47.62.3,1.12.69,1.49,1.15.38.45.68.9.87,1.34h.14v-8.2h4.53v21.82h-4.48v-2.62h-.19c-.21.45-.51.91-.91,1.35-.38.44-.88.81-1.5,1.1-.61.29-1.36.44-2.24.44ZM164.16,599.66c.73,0,1.35-.2,1.85-.6.51-.4.9-.97,1.17-1.69.28-.72.41-1.57.41-2.55s-.13-1.82-.4-2.53c-.27-.72-.66-1.27-1.17-1.66-.51-.39-1.13-.59-1.86-.59s-1.37.2-1.89.61c-.51.4-.9.97-1.16,1.68-.26.72-.39,1.55-.39,2.49s.13,1.79.39,2.53c.27.72.66,1.29,1.16,1.7.51.4,1.14.61,1.89.61ZM189.38,591.3l-4.15.26c-.07-.35-.22-.67-.46-.96-.23-.29-.54-.52-.93-.69-.38-.18-.83-.27-1.35-.27-.7,0-1.3.15-1.78.45-.48.29-.72.68-.72,1.17,0,.39.16.72.47.99.31.27.85.49,1.61.65l2.96.6c1.59.33,2.78.85,3.56,1.58.78.72,1.17,1.68,1.17,2.86,0,1.07-.32,2.01-.95,2.82-.62.81-1.48,1.44-2.58,1.9-1.09.45-2.34.67-3.76.67-2.17,0-3.89-.45-5.18-1.35-1.28-.91-2.03-2.14-2.25-3.71l4.46-.23c.13.66.46,1.16.98,1.51.52.34,1.18.51,1.99.51s1.43-.15,1.92-.46c.49-.31.74-.71.75-1.2,0-.41-.18-.75-.52-1.01-.34-.27-.87-.48-1.58-.62l-2.83-.57c-1.6-.32-2.79-.87-3.57-1.66-.77-.79-1.16-1.79-1.16-3.02,0-1.05.28-1.96.85-2.72.58-.76,1.38-1.35,2.42-1.76,1.04-.41,2.27-.62,3.67-.62,2.07,0,3.69.44,4.88,1.31,1.19.87,1.89,2.06,2.09,3.57Z"/>
  <rect class="cls-2" x="52" y="563" width="57" height="57"/>
  <g class="cls-4">
    <path d="M126.9,703v-21.82h4.61v18.02h9.35v3.8h-13.97ZM151.29,703.32c-1.68,0-3.13-.34-4.35-1.02-1.21-.69-2.14-1.66-2.79-2.92-.65-1.26-.98-2.76-.98-4.48s.33-3.16.98-4.43c.65-1.27,1.57-2.26,2.76-2.97,1.19-.71,2.59-1.07,4.2-1.07,1.08,0,2.08.17,3.01.52.94.34,1.75.86,2.45,1.54.7.69,1.25,1.55,1.64,2.6.39,1.04.59,2.25.59,3.64v1.25h-13.82v-2.81h9.55c0-.65-.14-1.23-.43-1.74-.28-.5-.68-.9-1.18-1.18-.5-.29-1.08-.44-1.74-.44s-1.3.16-1.83.48c-.53.31-.94.74-1.24,1.27-.3.53-.45,1.11-.46,1.76v2.67c0,.81.15,1.51.45,2.1.31.59.74,1.04,1.29,1.36.55.32,1.21.48,1.97.48.5,0,.96-.07,1.38-.21.42-.14.78-.35,1.08-.64.3-.29.53-.63.68-1.04l4.2.28c-.21,1.01-.65,1.89-1.31,2.64-.65.74-1.5,1.33-2.54,1.75-1.03.41-2.22.62-3.57.62ZM175.38,691.3l-4.15.26c-.07-.35-.22-.67-.46-.96-.23-.29-.54-.52-.93-.69-.38-.18-.83-.27-1.35-.27-.7,0-1.3.15-1.78.45-.48.29-.72.68-.72,1.17,0,.39.16.72.47.99.31.27.85.49,1.61.65l2.96.6c1.59.33,2.78.85,3.56,1.58.78.72,1.17,1.68,1.17,2.86,0,1.07-.32,2.01-.95,2.82-.62.81-1.48,1.44-2.58,1.9-1.09.45-2.34.67-3.76.67-2.17,0-3.89-.45-5.18-1.35-1.28-.91-2.03-2.14-2.25-3.71l4.46-.23c.13.66.46,1.16.98,1.51.52.34,1.18.51,1.99.51s1.43-.15,1.92-.46c.49-.31.74-.71.74-1.2,0-.41-.18-.75-.52-1.01-.34-.27-.87-.48-1.58-.62l-2.83-.57c-1.6-.32-2.79-.87-3.57-1.66-.77-.79-1.16-1.79-1.16-3.02,0-1.05.28-1.96.85-2.72.57-.76,1.38-1.35,2.42-1.76,1.04-.41,2.27-.62,3.67-.62,2.07,0,3.69.44,4.88,1.31,1.19.87,1.89,2.06,2.09,3.57ZM192.22,691.3l-4.16.26c-.07-.35-.22-.67-.46-.96-.23-.29-.54-.52-.93-.69-.38-.18-.83-.27-1.35-.27-.7,0-1.3.15-1.78.45-.48.29-.72.68-.72,1.17,0,.39.16.72.47.99.31.27.85.49,1.61.65l2.96.6c1.59.33,2.78.85,3.56,1.58.78.72,1.17,1.68,1.17,2.86,0,1.07-.32,2.01-.95,2.82-.62.81-1.49,1.44-2.58,1.9-1.09.45-2.34.67-3.76.67-2.17,0-3.89-.45-5.18-1.35-1.28-.91-2.03-2.14-2.25-3.71l4.46-.23c.13.66.46,1.16.98,1.51.52.34,1.18.51,1.99.51s1.43-.15,1.92-.46c.49-.31.74-.71.75-1.2,0-.41-.18-.75-.52-1.01-.34-.27-.87-.48-1.58-.62l-2.83-.57c-1.6-.32-2.79-.87-3.57-1.66-.77-.79-1.16-1.79-1.16-3.02,0-1.05.28-1.96.85-2.72.57-.76,1.38-1.35,2.42-1.76,1.04-.41,2.27-.62,3.66-.62,2.07,0,3.69.44,4.88,1.31,1.19.87,1.89,2.06,2.09,3.57ZM202.85,703.32c-1.65,0-3.09-.35-4.29-1.05-1.2-.71-2.13-1.7-2.78-2.96-.65-1.27-.98-2.74-.98-4.42s.33-3.17.98-4.43c.65-1.27,1.58-2.26,2.78-2.96,1.21-.71,2.64-1.07,4.29-1.07s3.08.36,4.28,1.07c1.21.7,2.14,1.69,2.79,2.96.65,1.26.98,2.74.98,4.43s-.33,3.15-.98,4.42c-.65,1.26-1.58,2.25-2.79,2.96-1.2.7-2.63,1.05-4.28,1.05ZM202.87,699.8c.75,0,1.38-.21,1.89-.64.5-.43.88-1.02,1.14-1.77.26-.74.39-1.59.39-2.55s-.13-1.8-.39-2.55c-.26-.75-.64-1.34-1.14-1.77-.5-.43-1.13-.65-1.89-.65s-1.4.22-1.92.65c-.51.43-.9,1.02-1.16,1.77-.26.75-.38,1.59-.38,2.55s.13,1.8.38,2.55c.26.75.65,1.34,1.16,1.77.52.43,1.16.64,1.92.64ZM218.39,693.54v9.46h-4.54v-16.36h4.32v2.89h.19c.36-.95.97-1.7,1.82-2.26.85-.56,1.89-.84,3.1-.84,1.14,0,2.13.25,2.97.75s1.5,1.21,1.97,2.13c.47.92.7,2.01.7,3.28v10.42h-4.54v-9.61c0-1-.25-1.78-.77-2.34-.52-.57-1.23-.85-2.14-.85-.61,0-1.15.13-1.62.39-.46.26-.82.65-1.09,1.15-.26.5-.39,1.1-.4,1.8ZM246.13,691.3l-4.15.26c-.07-.35-.22-.67-.46-.96-.23-.29-.54-.52-.93-.69-.38-.18-.83-.27-1.35-.27-.7,0-1.3.15-1.78.45-.48.29-.72.68-.72,1.17,0,.39.16.72.47.99.31.27.85.49,1.61.65l2.96.6c1.59.33,2.78.85,3.56,1.58.78.72,1.17,1.68,1.17,2.86,0,1.07-.32,2.01-.95,2.82-.62.81-1.48,1.44-2.58,1.9-1.09.45-2.34.67-3.76.67-2.17,0-3.89-.45-5.18-1.35-1.28-.91-2.03-2.14-2.25-3.71l4.46-.23c.13.66.46,1.16.98,1.51.52.34,1.18.51,1.99.51s1.43-.15,1.92-.46c.49-.31.74-.71.75-1.2,0-.41-.18-.75-.52-1.01-.34-.27-.87-.48-1.58-.62l-2.83-.57c-1.6-.32-2.79-.87-3.57-1.66-.77-.79-1.16-1.79-1.16-3.02,0-1.05.28-1.96.85-2.72.58-.76,1.38-1.35,2.42-1.76,1.04-.41,2.27-.62,3.67-.62,2.07,0,3.69.44,4.88,1.31,1.19.87,1.89,2.06,2.09,3.57Z"/>
    <rect class="cls-2" x="52" y="663" width="57" height="57"/>
  </g>
  <g class="cls-4">
    <path d="M141.36,788.23c-.15-.52-.36-.98-.63-1.37-.27-.4-.6-.75-.99-1.02-.38-.28-.82-.5-1.32-.65-.49-.15-1.03-.22-1.63-.22-1.12,0-2.1.28-2.94.83-.84.55-1.49,1.36-1.96,2.42-.47,1.05-.7,2.34-.7,3.86s.23,2.81.69,3.88c.46,1.07,1.11,1.88,1.96,2.44.85.55,1.84.83,2.99.83,1.04,0,1.93-.18,2.67-.55.75-.38,1.31-.91,1.7-1.59.4-.68.6-1.49.6-2.42l.94.14h-5.62v-3.47h9.13v2.75c0,1.92-.4,3.57-1.21,4.94-.81,1.37-1.93,2.43-3.35,3.17-1.42.74-3.05,1.11-4.88,1.11-2.05,0-3.84-.45-5.39-1.35-1.55-.91-2.76-2.2-3.62-3.87-.86-1.68-1.29-3.66-1.29-5.97,0-1.77.25-3.34.77-4.73.52-1.39,1.24-2.57,2.17-3.54.93-.97,2.01-1.7,3.25-2.2,1.24-.5,2.57-.76,4.02-.76,1.24,0,2.39.18,3.45.54,1.07.35,2.01.86,2.83,1.51.83.65,1.51,1.43,2.04,2.33.53.9.86,1.88,1.01,2.96h-4.69ZM149.63,803v-16.36h4.4v2.86h.17c.3-1.02.8-1.78,1.5-2.3.7-.53,1.51-.79,2.43-.79.23,0,.47.01.74.04.26.03.49.07.69.12v4.03c-.21-.06-.51-.12-.88-.17-.38-.05-.72-.07-1.03-.07-.67,0-1.26.15-1.79.44-.52.28-.93.68-1.24,1.19-.3.51-.45,1.1-.45,1.77v9.26h-4.54ZM166.11,803.31c-1.04,0-1.97-.18-2.79-.54-.82-.37-1.46-.91-1.94-1.63-.47-.72-.7-1.63-.7-2.71,0-.91.17-1.67.5-2.29.33-.62.79-1.11,1.36-1.49.58-.38,1.23-.66,1.96-.85.74-.19,1.51-.33,2.32-.4.95-.1,1.72-.19,2.3-.28.58-.09,1.01-.23,1.27-.41.26-.18.39-.44.39-.79v-.06c0-.67-.21-1.2-.64-1.57-.42-.37-1.02-.55-1.79-.55-.82,0-1.47.18-1.95.54-.48.35-.8.8-.96,1.34l-4.2-.34c.21-.99.63-1.85,1.26-2.58.62-.73,1.43-1.29,2.42-1.68.99-.4,2.15-.6,3.45-.6.91,0,1.78.11,2.61.32.84.21,1.58.54,2.23.99.65.45,1.17,1.02,1.54,1.73.38.7.56,1.53.56,2.5v11.04h-4.3v-2.27h-.13c-.26.51-.62.96-1.05,1.35-.44.38-.97.68-1.59.91-.62.21-1.33.32-2.14.32ZM167.41,800.18c.67,0,1.26-.13,1.77-.39.51-.27.91-.63,1.2-1.09.29-.45.44-.97.44-1.54v-1.74c-.14.09-.34.18-.59.26-.24.07-.51.14-.82.2-.31.06-.61.11-.92.16-.31.04-.58.08-.83.12-.53.08-1,.2-1.4.37-.4.17-.71.4-.93.69-.22.28-.33.64-.33,1.07,0,.62.22,1.09.67,1.42.46.32,1.03.48,1.73.48ZM184.87,803.27c-1.24,0-2.37-.32-3.38-.96-1-.65-1.8-1.59-2.39-2.84-.58-1.26-.87-2.8-.87-4.62s.3-3.43.91-4.68c.6-1.25,1.41-2.18,2.41-2.8,1.01-.62,2.11-.94,3.31-.94.92,0,1.68.16,2.29.47.62.3,1.12.69,1.49,1.15.38.45.67.9.87,1.34h.14v-8.2h4.53v21.82h-4.47v-2.62h-.19c-.21.45-.51.91-.9,1.35-.38.44-.88.81-1.5,1.1-.61.29-1.36.44-2.24.44ZM186.31,799.66c.73,0,1.35-.2,1.85-.6.51-.4.9-.97,1.17-1.69.28-.72.42-1.57.42-2.55s-.14-1.82-.4-2.53c-.27-.72-.66-1.27-1.17-1.66-.51-.39-1.13-.59-1.87-.59s-1.37.2-1.88.61c-.51.4-.9.97-1.16,1.68-.26.72-.39,1.55-.39,2.49s.13,1.79.39,2.53c.27.72.66,1.29,1.16,1.7.51.4,1.14.61,1.88.61ZM205.37,803.32c-1.68,0-3.13-.34-4.35-1.02-1.21-.69-2.14-1.66-2.79-2.92-.65-1.26-.98-2.76-.98-4.48s.33-3.16.98-4.43c.65-1.27,1.57-2.26,2.76-2.97,1.19-.71,2.59-1.07,4.2-1.07,1.08,0,2.08.17,3.01.52.94.34,1.75.86,2.45,1.54.7.69,1.25,1.55,1.64,2.6.39,1.04.59,2.25.59,3.64v1.25h-13.82v-2.81h9.55c0-.65-.14-1.23-.43-1.74-.28-.5-.68-.9-1.18-1.18-.5-.29-1.08-.44-1.74-.44s-1.3.16-1.83.48c-.53.31-.94.74-1.24,1.27-.3.53-.45,1.11-.46,1.76v2.67c0,.81.15,1.51.45,2.1.31.59.74,1.04,1.29,1.36.55.32,1.21.48,1.97.48.5,0,.96-.07,1.38-.21.42-.14.78-.35,1.08-.64.3-.29.53-.63.68-1.04l4.2.28c-.21,1.01-.65,1.89-1.31,2.64-.65.74-1.5,1.33-2.54,1.75-1.03.41-2.22.62-3.57.62ZM229.46,791.3l-4.15.26c-.07-.35-.22-.67-.46-.96-.23-.29-.54-.52-.93-.69-.38-.18-.83-.27-1.35-.27-.7,0-1.3.15-1.78.45-.48.29-.72.68-.72,1.17,0,.39.16.72.47.99.31.27.85.49,1.61.65l2.96.6c1.59.33,2.78.85,3.56,1.58.78.72,1.17,1.68,1.17,2.86,0,1.07-.32,2.01-.95,2.82-.62.81-1.48,1.44-2.58,1.9-1.09.45-2.34.67-3.76.67-2.17,0-3.89-.45-5.18-1.35-1.28-.91-2.03-2.14-2.25-3.71l4.46-.23c.13.66.46,1.16.98,1.51.52.34,1.18.51,1.99.51s1.43-.15,1.92-.46c.49-.31.74-.71.74-1.2,0-.41-.18-.75-.52-1.01-.34-.27-.87-.48-1.58-.62l-2.83-.57c-1.6-.32-2.79-.87-3.57-1.66-.77-.79-1.16-1.79-1.16-3.02,0-1.05.28-1.96.85-2.72.57-.76,1.38-1.35,2.42-1.76,1.04-.41,2.27-.62,3.67-.62,2.07,0,3.69.44,4.88,1.31,1.19.87,1.89,2.06,2.09,3.57Z"/>
    <rect class="cls-2" x="52" y="763" width="57" height="57"/>
  </g>
  <g class="cls-4">
    <path d="M130.66,903h-4.94l7.53-21.82h5.94l7.52,21.82h-4.94l-5.47-16.83h-.17l-5.48,16.83ZM130.35,894.42h11.68v3.6h-11.68v-3.6ZM149.25,903v-16.36h4.4v2.86h.17c.3-1.02.8-1.78,1.5-2.3.7-.53,1.51-.79,2.43-.79.23,0,.47.01.74.04.26.03.49.07.69.12v4.03c-.21-.06-.51-.12-.88-.17-.38-.05-.72-.07-1.03-.07-.67,0-1.26.15-1.79.44-.52.28-.93.68-1.24,1.19-.3.51-.45,1.1-.45,1.77v9.26h-4.54ZM168.16,903.32c-1.68,0-3.12-.36-4.33-1.07-1.2-.72-2.12-1.71-2.77-2.98-.64-1.27-.96-2.73-.96-4.39s.32-3.15.97-4.41c.65-1.27,1.58-2.26,2.78-2.97,1.2-.72,2.63-1.08,4.28-1.08,1.43,0,2.68.26,3.75.78,1.07.52,1.92,1.25,2.55,2.18.62.94.97,2.04,1.03,3.3h-4.28c-.12-.82-.44-1.47-.96-1.97-.51-.51-1.18-.76-2.01-.76-.7,0-1.32.19-1.84.58-.52.38-.92.93-1.21,1.65-.29.72-.44,1.6-.44,2.63s.14,1.93.43,2.66c.29.73.7,1.29,1.22,1.67.53.38,1.14.58,1.84.58.52,0,.98-.11,1.4-.32.42-.21.76-.52,1.03-.93.28-.41.46-.91.54-1.48h4.28c-.07,1.25-.41,2.35-1.02,3.3-.6.94-1.44,1.68-2.5,2.22-1.07.53-2.33.8-3.78.8ZM182.91,893.54v9.46h-4.54v-21.82h4.41v8.34h.19c.37-.97.97-1.72,1.79-2.27.82-.55,1.86-.83,3.1-.83,1.14,0,2.13.25,2.97.75.85.49,1.51,1.2,1.98,2.12.47.92.71,2.01.7,3.29v10.42h-4.54v-9.61c0-1.01-.25-1.79-.77-2.35-.51-.56-1.23-.84-2.15-.84-.62,0-1.16.13-1.64.39-.47.26-.84.65-1.11,1.15-.26.5-.4,1.1-.4,1.8ZM197.09,903v-16.36h4.54v16.36h-4.54ZM199.37,884.53c-.67,0-1.25-.22-1.74-.67-.48-.46-.71-1-.71-1.63s.24-1.16.71-1.61c.48-.45,1.06-.68,1.74-.68s1.25.23,1.73.68c.48.45.72.98.72,1.61s-.24,1.17-.72,1.63c-.48.45-1.05.67-1.73.67ZM220.52,886.64l-5.72,16.36h-5.11l-5.72-16.36h4.79l3.4,11.71h.17l3.39-11.71h4.81ZM229.78,903.32c-1.68,0-3.13-.34-4.35-1.02-1.21-.69-2.14-1.66-2.79-2.92-.65-1.26-.98-2.76-.98-4.48s.33-3.16.98-4.43c.65-1.27,1.57-2.26,2.76-2.97,1.19-.71,2.59-1.07,4.2-1.07,1.08,0,2.08.17,3.01.52.94.34,1.75.86,2.45,1.54.7.69,1.25,1.55,1.64,2.6.39,1.04.59,2.25.59,3.64v1.25h-13.82v-2.81h9.55c0-.65-.14-1.23-.43-1.74-.28-.5-.68-.9-1.18-1.18-.5-.29-1.08-.44-1.74-.44s-1.3.16-1.83.48c-.53.31-.94.74-1.24,1.27-.3.53-.45,1.11-.46,1.76v2.67c0,.81.15,1.51.45,2.1.3.59.74,1.04,1.29,1.36.55.32,1.21.48,1.97.48.5,0,.97-.07,1.38-.21.42-.14.78-.35,1.08-.64.3-.29.53-.63.68-1.04l4.2.28c-.21,1.01-.65,1.89-1.31,2.64-.65.74-1.5,1.33-2.54,1.75-1.03.41-2.22.62-3.57.62Z"/>
    <rect class="cls-2" x="52" y="863" width="57" height="57"/>
  </g>
  <g class="cls-7">
    <g>
      <path class="cls-1" d="M144.19,114.12c-2.98-.44-7.87-3.62-10.18-5.56-.42-.35-3.25-2.86-3.29-3.08-.01-.08.38-1.56.69-1.43,3.41,2.78,7.23,5.18,11.41,6.69-4.07-2.35-7.77-5.21-11.18-8.41l10.26,3.91-9.65-5.56,8.27,1.2-8.12-3,7.43-.83-7.43-.98,8.04-3.23-8.04,1.28,9.49-5.56-9.95,3.76c3.42-3.3,7.24-6.21,11.49-8.41-1.98.61-4.1,1.62-5.9,2.63-1.01.57-5.75,4.17-6.13,4.21-.57.05-.85-1.5-.54-1.8,3.72-3,8.5-7.49,13.48-8.11,3.4-.43,3.1,1.13,2.45,3.68-1.27,5-3.89,8.41-3.37,14.12.28,3.05,4.23,11.66,3.83,13.52-.26,1.19-2.16,1.11-3.06.98Z"/>
      <path class="cls-1" d="M54.9,81.83c4.83.54,10.13,5.18,13.63,8.26-.03.09.12,1.47-.54,1.65-3.61-2.67-7.39-5.24-11.72-6.69,4.06,2.3,7.78,5.11,11.18,8.26l-9.95-3.76,9.49,5.71-8.19-1.43,8.19,3.23-7.58.98,7.58.83-8.27,3,8.27-1.2-9.49,5.56,9.95-3.61c-3.59,3.05-7.18,6.18-11.49,8.26,4.44-1.39,8.35-4.06,12.02-6.83,1.38,1.35-1.05,3.08-2.14,4.06-2.14,1.91-7.85,5.65-10.64,6.01-.86.11-2.79.2-3.06-.83-.48-1.76,2.88-9.41,3.37-11.87,1.29-6.44-1.09-9.48-2.76-15.17-.74-2.52-1.74-4.86,2.14-4.43h0Z"/>
      <path class="cls-1" d="M95.95,67.26c-.27.07-.21-.03-.31-.15l4.06-6.01,3.91,6.08c-2.56-.2-5.1-.01-7.66.07h0Z"/>
      <path class="cls-1" d="M91.2,62.3l3.68,5.03-6.66,2.03-.08-.9c.62-1.07,2.13-5.93,3.06-6.16h0Z"/>
      <path class="cls-1" d="M108.81,62.9c.73,1.66,1.34,4.24,2.3,5.71-.04.45.21.48-.31.53-.75.06-5.13-1.98-6.43-1.8-.21-.26,3.59-5.1,3.91-5.03.2.04.24.58.54.6h0Z"/>
      <path class="cls-1" d="M124.89,78.67c-.07.23.18.76-.23.75-.21-1.14-5.37-4.97-5.28-5.33.03-.1.6-.16.61-.38,1.62,0,3.68-.93,4.98-.9.35,0,.83-.03.99.38.13.33-.88,4.82-1.07,5.48Z"/>
      <path class="cls-1" d="M82.47,66.8l4.59,2.93-6.66,3.98c-.32.02-.1-.74-.08-.9.12-.88,1.03-4.82,1.38-5.48.28-.54.24-.42.77-.53Z"/>
      <path class="cls-1" d="M119.07,73.72c-.64-.14-3.39-2.2-4.21-2.7-.71-.44-1.83-.72-2.53-1.2l4.82-3c.72.21,1.58,5.95,1.91,6.91h0Z"/>
      <path class="cls-1" d="M78.95,73.86c.18.06.95.03.92.38-2.15,1.28-3.56,3.48-5.21,5.18l-1.22-6.39c.22-.44,4.78.59,5.51.83Z"/>
      <path class="cls-1" d="M69.61,86.78c-.06-1.09-1.35-3.4-1.53-4.43-.08-.46-.14-1.14.15-1.43l5.05.23-3.68,5.63Z"/>
      <path class="cls-1" d="M129.18,80.93c.65,0,1.6-.17,2.14.23.39.82-1.63,4.59-1.68,5.63l-3.52-5.33.08-.38c1.01.1,1.99-.15,2.99-.15h0Z"/>
      <path class="cls-1" d="M88.52,125.09l6.51,1.58c-.32.73-3.1,4.82-3.6,4.88-.57.07-3.21-6.27-2.91-6.46h0Z"/>
      <path class="cls-1" d="M110.27,125.24c.15,0,.45-.06.54.07-.65,1.23-.95,2.65-1.53,3.91-.28.61-.91,2.55-1.61,2.33-.29-.09-3.55-4.71-3.29-5.03,1.65.12,4.52-1.26,5.9-1.28h0Z"/>
      <path class="cls-1" d="M96.18,126.59l7.12.23-3.75,5.03-3.37-5.26Z"/>
      <path class="cls-1" d="M97.55,68.61c14.98-.97,28.56,9.93,31.93,23.96-2.15-5.97-5.68-11.32-10.8-15.25-17.48-13.42-41.83-5.19-48.7,14.87l.84-3.23c4.2-10.73,14.77-19.58,26.72-20.36h0Z"/>
      <path class="cls-1" d="M98.63,72.36c6.35-.83,6.38,5.79,0,4.96-3.75-.49-3.75-4.47,0-4.96Z"/>
      <path class="cls-1" d="M98.93,79.57c3.83-.56,5.29,3.81,1.99,4.81-4.6,1.39-5.97-4.23-1.99-4.81Z"/>
      <path class="cls-1" d="M82.39,80.17c4.42-.74,3.49,5.72-.46,5.26-2.82-.33-2.28-4.8.46-5.26Z"/>
      <path class="cls-1" d="M115.62,80.32c3.45-.58,4.94,4.25,2.14,5.11-3.7,1.13-5.36-4.57-2.14-5.11Z"/>
      <path class="cls-1" d="M80.4,121.33l6.35,3.38-5.13,3.23-1.22-6.61Z"/>
      <path class="cls-1" d="M118.54,121.49c.14,0,.3-.05.38.07-.19.84-.85,6.28-1.45,6.39l-5.13-3.23c1-.12,5.85-3.23,6.2-3.23Z"/>
      <path class="cls-1" d="M69.07,107.82l3.14,5.93-5.13.68,1.99-6.61Z"/>
      <path class="cls-1" d="M130.17,107.82c.3-.03,1.82,4.97,1.91,5.48.06.34.31,1.08-.08,1.28l-4.98-.83,3.14-5.93Z"/>
      <path class="cls-1" d="M73.05,114.72l3.45,3.98c-1.74.7-3.58,1.53-5.44,1.73-.63-.26,1.59-4.99,1.99-5.71h0Z"/>
      <path class="cls-1" d="M108.58,74.77c3.37-.76,6.29,3.23,3.06,3.76-3.04.49-5.89-3.11-3.06-3.76Z"/>
      <path class="cls-1" d="M108.73,82.13c2.83-.3,3.6,4.37,1.07,4.81-2.96.51-3.65-4.53-1.07-4.81Z"/>
      <path class="cls-1" d="M89.28,74.62c4.18-.34,2.42,4.18-1.22,3.91-3.26-.25-1.49-3.68,1.22-3.91Z"/>
      <path class="cls-1" d="M126.19,114.72c.29,0,1.85,4.41,1.91,4.88.05.32.18.9-.23.98-.27.05-5.07-1.76-5.13-2.03l3.45-3.83h0Z"/>
      <path class="cls-1" d="M89.74,81.98c3.26-.62,2.98,4.77.15,4.81-2.61.03-2.45-4.37-.15-4.81Z"/>
      <path class="cls-1" d="M98.01,102.86c4.28-.38,8.31,1.06,11.64,3.61,5.82-3.91,13.12-4.32,19.3-.9-2.36,9.39-11.79,16.73-21.29,18.78-15.37,3.32-32.34-3.25-37.44-18.55,5.9-3.78,13.65-3.21,19.37.68,2.38-1.74,5.41-3.34,8.42-3.61h0Z"/>
      <path class="cls-5" d="M97.4,106.01c3.52-.3,7.62.22,10.8,1.73-4.73,5.03-12.41,5.03-17.15,0,.04-.48,5.65-1.67,6.36-1.73h0Z"/>
      <path class="cls-5" d="M93.88,113.22c2.21,1.62,4.91,2.31,7.66,1.8l3.75-1.43c-3.39,3.51-8.4,3.59-11.41-.38Z"/>
      <path class="cls-1" d="M115.47,89.04c8.3-.95,9.5,11.18,1.99,12.17-8.68,1.14-9.62-11.3-1.99-12.17Z"/>
      <path class="cls-5" d="M115.32,90.84c4.65-.87,7.39,4.8,3.98,7.66-3.18,2.66-8.14-.16-7.2-4.21,2.52,2.69,5.67-1.4,2.37-3.08,0-.05.79-.37.84-.38h0Z"/>
      <path class="cls-1" d="M82.09,89.04c8.31-.89,9.31,11.25,1.84,12.17-8.64,1.06-9.5-11.34-1.84-12.17Z"/>
      <path class="cls-5" d="M81.93,90.84c.5-.08,2.76,0,2.99.38-3.57,1.58-.07,5.95,2.22,2.93,1.07,3.83-3.29,6.8-6.74,4.66-3.16-1.97-2.1-7.38,1.53-7.96h0Z"/>
      <path class="cls-1" d="M144.19,114.12c-2.98-.44-7.87-3.62-10.18-5.56-.42-.35-3.25-2.86-3.29-3.08-.01-.08.38-1.56.69-1.43,3.41,2.78,7.23,5.18,11.41,6.69-4.07-2.35-7.77-5.21-11.18-8.41l10.26,3.91-9.65-5.56,8.27,1.2-8.12-3,7.43-.83-7.43-.98,8.04-3.23-8.04,1.28,9.49-5.56-9.95,3.76c3.42-3.3,7.24-6.21,11.49-8.41-1.98.61-4.1,1.62-5.9,2.63-1.01.57-5.75,4.17-6.13,4.21-.57.05-.85-1.5-.54-1.8,3.72-3,8.5-7.49,13.48-8.11,3.4-.43,3.1,1.13,2.45,3.68-1.27,5-3.89,8.41-3.37,14.12.28,3.05,4.23,11.66,3.83,13.52-.26,1.19-2.16,1.11-3.06.98Z"/>
      <path class="cls-1" d="M54.9,81.83c4.83.54,10.13,5.18,13.63,8.26-.03.09.12,1.47-.54,1.65-3.61-2.67-7.39-5.24-11.72-6.69,4.06,2.3,7.78,5.11,11.18,8.26l-9.95-3.76,9.49,5.71-8.19-1.43,8.19,3.23-7.58.98,7.58.83-8.27,3,8.27-1.2-9.49,5.56,9.95-3.61c-3.59,3.05-7.18,6.18-11.49,8.26,4.44-1.39,8.35-4.06,12.02-6.83,1.38,1.35-1.05,3.08-2.14,4.06-2.14,1.91-7.85,5.65-10.64,6.01-.86.11-2.79.2-3.06-.83-.48-1.76,2.88-9.41,3.37-11.87,1.29-6.44-1.09-9.48-2.76-15.17-.74-2.52-1.74-4.86,2.14-4.43h0Z"/>
      <path class="cls-1" d="M95.95,67.26c-.27.07-.21-.03-.31-.15l4.06-6.01,3.91,6.08c-2.56-.2-5.1-.01-7.66.07h0Z"/>
      <path class="cls-1" d="M91.2,62.3l3.68,5.03-6.66,2.03-.08-.9c.62-1.07,2.13-5.93,3.06-6.16h0Z"/>
      <path class="cls-1" d="M108.81,62.9c.73,1.66,1.34,4.24,2.3,5.71-.04.45.21.48-.31.53-.75.06-5.13-1.98-6.43-1.8-.21-.26,3.59-5.1,3.91-5.03.2.04.24.58.54.6h0Z"/>
      <path class="cls-1" d="M124.89,78.67c-.07.23.18.76-.23.75-.21-1.14-5.37-4.97-5.28-5.33.03-.1.6-.16.61-.38,1.62,0,3.68-.93,4.98-.9.35,0,.83-.03.99.38.13.33-.88,4.82-1.07,5.48Z"/>
      <path class="cls-1" d="M82.47,66.8l4.59,2.93-6.66,3.98c-.32.02-.1-.74-.08-.9.12-.88,1.03-4.82,1.38-5.48.28-.54.24-.42.77-.53Z"/>
      <path class="cls-1" d="M119.07,73.72c-.64-.14-3.39-2.2-4.21-2.7-.71-.44-1.83-.72-2.53-1.2l4.82-3c.72.21,1.58,5.95,1.91,6.91h0Z"/>
      <path class="cls-1" d="M78.95,73.86c.18.06.95.03.92.38-2.15,1.28-3.56,3.48-5.21,5.18l-1.22-6.39c.22-.44,4.78.59,5.51.83Z"/>
      <path class="cls-1" d="M69.61,86.78c-.06-1.09-1.35-3.4-1.53-4.43-.08-.46-.14-1.14.15-1.43l5.05.23-3.68,5.63Z"/>
      <path class="cls-1" d="M129.18,80.93c.65,0,1.6-.17,2.14.23.39.82-1.63,4.59-1.68,5.63l-3.52-5.33.08-.38c1.01.1,1.99-.15,2.99-.15h0Z"/>
      <path class="cls-1" d="M88.52,125.09l6.51,1.58c-.32.73-3.1,4.82-3.6,4.88-.57.07-3.21-6.27-2.91-6.46h0Z"/>
      <path class="cls-1" d="M110.27,125.24c.15,0,.45-.06.54.07-.65,1.23-.95,2.65-1.53,3.91-.28.61-.91,2.55-1.61,2.33-.29-.09-3.55-4.71-3.29-5.03,1.65.12,4.52-1.26,5.9-1.28h0Z"/>
      <path class="cls-1" d="M96.18,126.59l7.12.23-3.75,5.03-3.37-5.26Z"/>
      <path class="cls-1" d="M97.55,68.61c14.98-.97,28.56,9.93,31.93,23.96-2.15-5.97-5.68-11.32-10.8-15.25-17.48-13.42-41.83-5.19-48.7,14.87l.84-3.23c4.2-10.73,14.77-19.58,26.72-20.36h0Z"/>
      <path class="cls-1" d="M98.63,72.36c6.35-.83,6.38,5.79,0,4.96-3.75-.49-3.75-4.47,0-4.96Z"/>
      <path class="cls-1" d="M98.93,79.57c3.83-.56,5.29,3.81,1.99,4.81-4.6,1.39-5.97-4.23-1.99-4.81Z"/>
      <path class="cls-1" d="M82.39,80.17c4.42-.74,3.49,5.72-.46,5.26-2.82-.33-2.28-4.8.46-5.26Z"/>
      <path class="cls-1" d="M115.62,80.32c3.45-.58,4.94,4.25,2.14,5.11-3.7,1.13-5.36-4.57-2.14-5.11Z"/>
      <path class="cls-1" d="M80.4,121.33l6.35,3.38-5.13,3.23-1.22-6.61Z"/>
      <path class="cls-1" d="M118.54,121.49c.14,0,.3-.05.38.07-.19.84-.85,6.28-1.45,6.39l-5.13-3.23c1-.12,5.85-3.23,6.2-3.23Z"/>
      <path class="cls-1" d="M69.07,107.82l3.14,5.93-5.13.68,1.99-6.61Z"/>
      <path class="cls-1" d="M130.17,107.82c.3-.03,1.82,4.97,1.91,5.48.06.34.31,1.08-.08,1.28l-4.98-.83,3.14-5.93Z"/>
      <path class="cls-1" d="M73.05,114.72l3.45,3.98c-1.74.7-3.58,1.53-5.44,1.73-.63-.26,1.59-4.99,1.99-5.71h0Z"/>
      <path class="cls-1" d="M108.58,74.77c3.37-.76,6.29,3.23,3.06,3.76-3.04.49-5.89-3.11-3.06-3.76Z"/>
      <path class="cls-1" d="M108.73,82.13c2.83-.3,3.6,4.37,1.07,4.81-2.96.51-3.65-4.53-1.07-4.81Z"/>
      <path class="cls-1" d="M89.28,74.62c4.18-.34,2.42,4.18-1.22,3.91-3.26-.25-1.49-3.68,1.22-3.91Z"/>
      <path class="cls-1" d="M126.19,114.72c.29,0,1.85,4.41,1.91,4.88.05.32.18.9-.23.98-.27.05-5.07-1.76-5.13-2.03l3.45-3.83h0Z"/>
      <path class="cls-1" d="M89.74,81.98c3.26-.62,2.98,4.77.15,4.81-2.61.03-2.45-4.37-.15-4.81Z"/>
      <path class="cls-1" d="M98.01,102.86c4.28-.38,8.31,1.06,11.64,3.61,5.82-3.91,13.12-4.32,19.3-.9-2.36,9.39-11.79,16.73-21.29,18.78-15.37,3.32-32.34-3.25-37.44-18.55,5.9-3.78,13.65-3.21,19.37.68,2.38-1.74,5.41-3.34,8.42-3.61h0Z"/>
      <path class="cls-5" d="M97.4,106.01c3.52-.3,7.62.22,10.8,1.73-4.73,5.03-12.41,5.03-17.15,0,.04-.48,5.65-1.67,6.36-1.73h0Z"/>
      <path class="cls-5" d="M93.88,113.22c2.21,1.62,4.91,2.31,7.66,1.8l3.75-1.43c-3.39,3.51-8.4,3.59-11.41-.38Z"/>
      <path class="cls-1" d="M115.47,89.04c8.3-.95,9.5,11.18,1.99,12.17-8.68,1.14-9.62-11.3-1.99-12.17Z"/>
      <path class="cls-5" d="M115.32,90.84c4.65-.87,7.39,4.8,3.98,7.66-3.18,2.66-8.14-.16-7.2-4.21,2.52,2.69,5.67-1.4,2.37-3.08,0-.05.79-.37.84-.38h0Z"/>
      <path class="cls-1" d="M82.09,89.04c8.31-.89,9.31,11.25,1.84,12.17-8.64,1.06-9.5-11.34-1.84-12.17Z"/>
      <path class="cls-5" d="M81.93,90.84c.5-.08,2.76,0,2.99.38-3.57,1.58-.07,5.95,2.22,2.93,1.07,3.83-3.29,6.8-6.74,4.66-3.16-1.97-2.1-7.38,1.53-7.96h0Z"/>
      <path class="cls-1" d="M175.45,99.08c.15-.59.32-1.16.5-1.72.19-.57.41-1.21.68-1.92.23-.63.51-1.35.85-2.16.33-.82.68-1.66,1.04-2.5.38-.84.74-1.63,1.09-2.36.35-.73.67-1.31.96-1.74.35-.53.74-.93,1.14-1.19.42-.26,1.03-.39,1.84-.39h2.17c.57,0,1.05.09,1.44.26.4.16.68.56.85,1.19.12.47.24,1.15.35,2.05.11.9.21,2.15.28,3.74.08,1.59.14,3.64.18,6.14.04,2.49.07,5.57.07,9.25,0,.19-.07.36-.2.49-.13.13-.29.19-.48.19h-3.78c-.19,0-.35-.07-.48-.19-.13-.13-.2-.3-.2-.5v-7.28c0-1.99,0-3.64-.02-4.96s-.03-2.35-.05-3.12c-.01-.78-.03-1.38-.07-1.8h-.1c-.59,1.32-1.21,2.79-1.87,4.42-.66,1.61-1.31,3.28-1.94,5.01-.63,1.71-1.19,3.39-1.69,5.02-.14.49-.33.83-.55,1.02-.21.18-.7.28-1.46.28h-1.91c-.65,0-1.09-.08-1.31-.24-.21-.16-.39-.51-.55-1.06-.36-1.23-.77-2.54-1.21-3.92-.44-1.38-.9-2.72-1.38-4.05-.46-1.33-.92-2.56-1.36-3.67-.43-1.13-.82-2.06-1.16-2.81h-.1c-.09,1.28-.17,2.83-.23,4.66-.07,1.83-.12,3.82-.17,5.96-.03,2.14-.05,4.33-.07,6.56,0,.19-.07.36-.2.49-.13.12-.29.18-.48.18h-3.4c-.19,0-.35-.07-.48-.19-.13-.13-.2-.3-.2-.5.01-5.77.13-10.38.35-13.83.23-3.44.48-5.75.75-6.92.18-.77.49-1.27.93-1.5.45-.24.97-.36,1.54-.36h2.68c.61,0,1.05.11,1.32.33.29.21.63.61,1.04,1.22.24.36.53.89.86,1.61.34.71.7,1.51,1.06,2.39.36.87.71,1.73,1.03,2.58.33.85.6,1.58.81,2.21.22.64.43,1.26.61,1.87.19.6.35,1.19.5,1.77h.13ZM201.26,108.81c-2.78,0-4.99-.73-6.61-2.18-1.62-1.45-2.43-3.61-2.43-6.48s.84-5.15,2.52-6.6c1.69-1.46,3.94-2.19,6.76-2.19s4.89.72,6.53,2.16c1.63,1.43,2.45,3.54,2.45,6.34s-.82,5.13-2.45,6.66c-1.63,1.53-3.89,2.29-6.76,2.29ZM201.42,104.88c1.21,0,2.13-.37,2.75-1.1.62-.75.93-2.02.93-3.82s-.32-2.91-.94-3.61c-.62-.7-1.54-1.06-2.77-1.06s-2.12.38-2.8,1.14c-.67.75-1.01,1.97-1.01,3.66s.32,3.01.96,3.72c.65.72,1.61,1.07,2.88,1.07ZM222.16,108.81c-2.78,0-4.99-.73-6.61-2.18-1.62-1.45-2.43-3.61-2.43-6.48s.84-5.15,2.52-6.6c1.69-1.46,3.94-2.19,6.76-2.19s4.89.72,6.53,2.16c1.63,1.43,2.45,3.54,2.45,6.34s-.82,5.13-2.45,6.66c-1.63,1.53-3.89,2.29-6.76,2.29ZM222.33,104.88c1.21,0,2.13-.37,2.75-1.1.62-.75.93-2.02.93-3.82s-.32-2.91-.95-3.61c-.62-.7-1.54-1.06-2.77-1.06s-2.11.38-2.8,1.14c-.67.75-1.01,1.97-1.01,3.66s.32,3.01.96,3.72c.65.72,1.61,1.07,2.88,1.07ZM240.93,108.81c-1.47,0-2.72-.35-3.76-1.06-1.03-.72-1.81-1.7-2.35-2.94-.53-1.26-.79-2.7-.79-4.34,0-2.16.39-3.9,1.16-5.23.78-1.34,1.88-2.33,3.3-2.96,1.42-.63,3.1-.94,5.04-.94.66,0,1.21.03,1.64.1.44.07.76.12.94.18v-6.06c0-.26.05-.46.16-.6.46-.6,1.14-1.24,2.04-1.93.15-.11.29-.16.41-.16.14,0,.28.05.41.16.47.36.87.69,1.19,1.01.33.31.61.62.85.93.11.14.16.34.16.6v22.1c0,.21-.07.39-.21.54-.14.14-.33.21-.55.21h-2.47c-.18,0-.34-.02-.48-.07-.13-.05-.26-.15-.38-.29l-1.03-1.3h-.12c-.14.22-.4.49-.78.83-.36.32-.9.61-1.61.86-.7.25-1.62.37-2.78.37ZM242.54,104.65c.99,0,1.77-.18,2.34-.55.57-.37.98-.83,1.23-1.4v-6.81c-.18-.11-.47-.24-.88-.39-.41-.15-.98-.23-1.72-.23-1.37,0-2.4.44-3.08,1.32-.68.88-1.03,2.06-1.03,3.54s.29,2.68.86,3.41c.57.74,1.34,1.11,2.29,1.11ZM260.31,108.41c-1.14,0-2-.14-2.6-.42-.59-.28-.98-.74-1.19-1.38-.2-.64-.3-1.49-.3-2.55v-14.59c0-1.08.1-1.94.3-2.57.21-.64.61-1.09,1.19-1.36.6-.28,1.46-.42,2.6-.42h4.56c2.65,0,4.69.48,6.11,1.43,1.42.95,2.14,2.3,2.14,4.03,0,.86-.2,1.64-.6,2.34-.4.7-.92,1.31-1.57,1.8-.64.5-1.34.87-2.1,1.12v.07c.97.13,1.85.44,2.63.94.78.49,1.41,1.13,1.87,1.92.48.78.71,1.68.71,2.7,0,1.52-.38,2.79-1.13,3.83-.74,1.03-1.77,1.81-3.08,2.34-1.3.52-2.8.78-4.51.78h-5.04ZM261.57,102.51c0,.73.13,1.25.4,1.56.27.31.76.47,1.49.47h1.26c1.11,0,2.01-.28,2.68-.85.68-.56,1.03-1.33,1.03-2.31s-.33-1.66-.99-2.19c-.66-.53-1.52-.8-2.57-.8h.02c-.26,0-.46-.04-.6-.11-.29-.18-.58-.4-.89-.63-.3-.25-.62-.55-.98-.89-.11-.14-.17-.24-.17-.31,0-.09.05-.19.17-.31.35-.35.68-.64.98-.89.31-.25.61-.46.89-.63.15-.08.35-.11.6-.11h-.02c.65,0,1.25-.24,1.79-.71.55-.48.83-1.22.83-2.24s-.29-1.71-.88-2.05c-.58-.35-1.34-.52-2.25-.52h-.9c-.73,0-1.23.15-1.49.45-.26.3-.4.82-.4,1.56v11.52ZM283.55,108.81c-3.93,0-5.9-2.33-5.9-7l-.02-8.25c0-.26.05-.46.17-.6.46-.6,1.14-1.24,2.04-1.93.15-.11.29-.16.41-.16.14,0,.28.05.41.16.48.36.87.69,1.19,1.01.33.31.61.62.85.93.11.14.17.34.17.6v7.8c0,2.35.95,3.53,2.85,3.53.94,0,1.69-.32,2.25-.96.56-.65.85-1.53.85-2.63v-7.73c0-.26.06-.46.17-.6.46-.6,1.14-1.24,2.04-1.93.16-.11.29-.16.42-.16.14,0,.28.05.41.16.48.36.87.69,1.19,1.01.33.31.61.62.84.93.11.14.17.34.17.6v14.1c0,.21-.07.39-.22.54-.14.14-.33.21-.55.21h-2.48c-.18,0-.34-.02-.48-.07-.13-.05-.26-.15-.38-.29l-1.03-1.3h-.12c-.18.25-.45.54-.83.86-.37.32-.9.61-1.61.85-.7.24-1.64.36-2.82.36ZM304.54,108.81c-1.47,0-2.72-.35-3.76-1.06-1.03-.72-1.81-1.7-2.35-2.94-.53-1.26-.8-2.7-.8-4.34,0-2.16.39-3.9,1.16-5.23.78-1.34,1.88-2.33,3.3-2.96,1.42-.63,3.1-.94,5.03-.94.66,0,1.21.03,1.64.1.44.07.76.12.95.18v-6.06c0-.26.05-.46.16-.6.46-.6,1.14-1.24,2.04-1.93.15-.11.29-.16.41-.16.14,0,.28.05.41.16.48.36.87.69,1.19,1.01.33.31.61.62.85.93.11.14.16.34.16.6v22.1c0,.21-.07.39-.22.54-.14.14-.33.21-.55.21h-2.47c-.18,0-.34-.02-.48-.07-.13-.05-.26-.15-.38-.29l-1.03-1.3h-.11c-.15.22-.4.49-.78.83-.37.32-.9.61-1.61.86-.7.25-1.62.37-2.78.37ZM306.14,104.65c.99,0,1.77-.18,2.33-.55.57-.37.98-.83,1.23-1.4v-6.81c-.18-.11-.47-.24-.88-.39-.41-.15-.98-.23-1.72-.23-1.37,0-2.4.44-3.08,1.32-.68.88-1.03,2.06-1.03,3.54s.29,2.68.86,3.41c.57.74,1.34,1.11,2.29,1.11ZM325.24,108.81c-1.47,0-2.72-.35-3.76-1.06-1.03-.72-1.81-1.7-2.35-2.94-.53-1.26-.8-2.7-.8-4.34,0-2.16.39-3.9,1.16-5.23.78-1.34,1.88-2.33,3.3-2.96,1.42-.63,3.1-.94,5.03-.94.66,0,1.21.03,1.64.1.44.07.76.12.94.18v-6.06c0-.26.05-.46.17-.6.46-.6,1.14-1.24,2.04-1.93.16-.11.29-.16.42-.16.14,0,.28.05.41.16.47.36.87.69,1.19,1.01.33.31.61.62.84.93.11.14.17.34.17.6v22.1c0,.21-.07.39-.22.54-.15.14-.33.21-.55.21h-2.47c-.18,0-.34-.02-.48-.07-.13-.05-.26-.15-.38-.29l-1.03-1.3h-.11c-.14.22-.4.49-.78.83-.36.32-.9.61-1.61.86-.69.25-1.62.37-2.78.37ZM326.85,104.65c.99,0,1.77-.18,2.33-.55.57-.37.98-.83,1.23-1.4v-6.81c-.18-.11-.47-.24-.88-.39-.41-.15-.98-.23-1.72-.23-1.37,0-2.4.44-3.08,1.32-.68.88-1.03,2.06-1.03,3.54s.29,2.68.86,3.41c.57.74,1.33,1.11,2.29,1.11ZM340.64,116.22c-.41,0-.72-.04-.93-.13-.21-.08-.39-.17-.53-.29-.29-.27-.6-.65-.93-1.14-.08-.12-.16-.26-.25-.42-.09-.15-.13-.28-.13-.39,0-.12.03-.23.08-.32.05-.1.12-.19.2-.28.18-.23.39-.47.65-.72.26-.24.47-.43.64-.57.12-.1.22-.16.3-.19.08-.02.14-.03.2-.03s.14.01.25.03c.11.02.28.03.5.03.76,0,1.56-.24,2.39-.73.83-.49,1.65-1.4,2.45-2.75-.84-.76-1.67-1.71-2.48-2.84-.81-1.15-1.54-2.39-2.19-3.72-.65-1.34-1.18-2.68-1.57-4.01-.39-1.33-.58-2.56-.58-3.69,0-.24.06-.43.18-.57.51-.62,1.23-1.26,2.17-1.93.17-.11.31-.16.45-.16.14,0,.29.05.45.16.51.36.93.69,1.28,1.01.35.31.65.62.89.93.12.14.18.34.18.6v-.07c0,.86.1,1.76.32,2.71.21.95.5,1.89.86,2.79.36.9.77,1.72,1.23,2.45.45.73.92,1.31,1.41,1.74h.08c.22-.41.46-1,.73-1.77.28-.78.54-1.64.78-2.58.24-.95.44-1.9.6-2.83.15-.94.23-1.78.23-2.5v.05c0-.26.06-.46.17-.6.26-.3.55-.61.89-.93.34-.31.76-.65,1.24-1.01.15-.11.3-.16.43-.16.16,0,.3.05.43.16.5.36.92.69,1.26,1.01.34.31.63.62.88.93.11.14.17.34.17.59-.01.99-.2,2.27-.58,3.87-.38,1.58-.92,3.3-1.64,5.15-.72,1.85-1.59,3.67-2.62,5.44-1.54,2.68-3.19,4.63-4.97,5.85-1.78,1.22-3.63,1.84-5.55,1.84ZM356,94.04v.05-.05ZM338.71,94.04v.05-.05Z"/>
    </g>
  </g>
  <path class="cls-1" d="M184.54,485.82h-4.67c-.09-.6-.26-1.14-.52-1.61-.26-.48-.6-.88-1.01-1.21-.41-.33-.89-.59-1.43-.77-.53-.18-1.11-.27-1.74-.27-1.13,0-2.11.28-2.95.84-.84.55-1.49,1.36-1.95,2.43-.46,1.06-.69,2.34-.69,3.86s.23,2.86.69,3.92c.47,1.06,1.12,1.86,1.96,2.4.84.54,1.81.81,2.91.81.62,0,1.19-.08,1.71-.24.53-.16,1.01-.4,1.42-.71.41-.32.75-.71,1.02-1.16.28-.45.47-.97.57-1.55l4.67.02c-.12,1-.42,1.97-.91,2.9-.48.92-1.12,1.75-1.93,2.48-.8.72-1.76,1.3-2.88,1.73-1.11.42-2.36.63-3.76.63-1.95,0-3.69-.44-5.22-1.32-1.53-.88-2.73-2.15-3.62-3.82-.88-1.67-1.32-3.69-1.32-6.06s.45-4.4,1.34-6.07c.9-1.67,2.11-2.94,3.64-3.81,1.53-.88,3.26-1.32,5.18-1.32,1.26,0,2.44.18,3.51.53,1.09.36,2.05.87,2.89,1.56.84.67,1.52,1.5,2.05,2.48.53.98.87,2.1,1.02,3.37ZM192.3,478.18v21.82h-4.54v-21.82h4.54ZM200.6,500.31c-1.04,0-1.97-.18-2.79-.54-.82-.37-1.46-.91-1.94-1.63-.47-.72-.7-1.63-.7-2.71,0-.91.17-1.67.5-2.29.33-.62.79-1.12,1.36-1.49.58-.38,1.23-.66,1.96-.85.74-.19,1.51-.33,2.32-.4.95-.1,1.72-.19,2.3-.28.58-.09,1-.23,1.27-.4.26-.18.39-.44.39-.79v-.06c0-.67-.21-1.2-.64-1.57-.42-.37-1.02-.55-1.79-.55-.82,0-1.47.18-1.95.54-.48.36-.8.8-.96,1.34l-4.2-.34c.21-.99.63-1.85,1.26-2.58.62-.73,1.43-1.29,2.42-1.68.99-.4,2.15-.6,3.45-.6.91,0,1.78.11,2.61.32.84.21,1.58.54,2.23.99.65.45,1.17,1.02,1.54,1.73.38.7.56,1.53.56,2.5v11.04h-4.3v-2.27h-.13c-.26.51-.62.96-1.06,1.35-.44.38-.97.68-1.59.9-.62.21-1.33.32-2.14.32ZM201.9,497.18c.67,0,1.26-.13,1.77-.39.51-.27.91-.63,1.2-1.09.29-.46.44-.97.44-1.55v-1.74c-.14.09-.34.18-.59.26-.24.07-.51.14-.82.2-.31.06-.61.11-.92.16-.31.04-.58.08-.83.12-.53.08-1,.2-1.4.37-.4.17-.71.4-.93.69-.22.28-.33.64-.33,1.07,0,.62.22,1.09.67,1.42.46.32,1.03.48,1.73.48ZM226.96,488.3l-4.15.26c-.07-.36-.22-.67-.46-.96-.24-.29-.54-.52-.93-.69-.38-.18-.83-.27-1.35-.27-.7,0-1.3.15-1.78.45-.48.29-.72.68-.72,1.17,0,.39.16.72.47.99.31.27.85.49,1.61.65l2.96.6c1.59.33,2.78.85,3.56,1.58.78.72,1.17,1.68,1.17,2.85,0,1.07-.32,2.01-.95,2.82-.62.81-1.48,1.44-2.58,1.9-1.09.45-2.34.67-3.76.67-2.17,0-3.89-.45-5.18-1.35-1.28-.91-2.03-2.15-2.25-3.71l4.46-.23c.13.66.46,1.17.98,1.51.52.34,1.18.51,1.99.51s1.43-.15,1.92-.46c.49-.31.74-.71.74-1.2,0-.41-.18-.75-.52-1.01-.34-.27-.87-.48-1.58-.62l-2.83-.57c-1.6-.32-2.79-.87-3.57-1.66-.77-.79-1.16-1.79-1.16-3.02,0-1.05.28-1.96.85-2.72.57-.76,1.38-1.35,2.42-1.76,1.04-.41,2.27-.62,3.67-.62,2.07,0,3.69.44,4.88,1.31,1.19.87,1.89,2.06,2.09,3.57ZM243.8,488.3l-4.15.26c-.07-.36-.22-.67-.46-.96-.23-.29-.54-.52-.93-.69-.38-.18-.83-.27-1.35-.27-.7,0-1.3.15-1.78.45-.48.29-.72.68-.72,1.17,0,.39.16.72.47.99.31.27.85.49,1.61.65l2.96.6c1.59.33,2.78.85,3.56,1.58.78.72,1.17,1.68,1.17,2.85,0,1.07-.32,2.01-.95,2.82-.62.81-1.49,1.44-2.58,1.9-1.09.45-2.34.67-3.76.67-2.17,0-3.89-.45-5.18-1.35-1.28-.91-2.03-2.15-2.25-3.71l4.46-.23c.13.66.46,1.17.98,1.51.52.34,1.18.51,1.99.51s1.43-.15,1.92-.46c.49-.31.74-.71.75-1.2,0-.41-.18-.75-.52-1.01-.34-.27-.87-.48-1.58-.62l-2.83-.57c-1.6-.32-2.79-.87-3.57-1.66-.77-.79-1.16-1.79-1.16-3.02,0-1.05.29-1.96.85-2.72.57-.76,1.38-1.35,2.42-1.76,1.04-.41,2.27-.62,3.66-.62,2.07,0,3.69.44,4.88,1.31,1.19.87,1.89,2.06,2.09,3.57ZM257.82,500h-4.94l7.53-21.82h5.94l7.52,21.82h-4.94l-5.47-16.83h-.17l-5.48,16.83ZM257.51,491.42h11.68v3.6h-11.68v-3.6Z"/>
  <g>
    <rect class="cls-1" x="484" y="50" width="905.12" height="59.33" rx="20" ry="20"/>
    <path d="M505.98,90.42v-21.82h13.17v2.34h-10.53v7.37h9.84v2.34h-9.84v7.41h10.7v2.34h-13.34ZM523.56,90.42v-16.36h2.43v2.56h.21c.34-.87.89-1.55,1.65-2.03.76-.49,1.67-.74,2.74-.74s1.98.24,2.7.74c.73.48,1.29,1.16,1.69,2.03h.17c.42-.85,1.05-1.52,1.89-2.01.84-.5,1.84-.76,3.02-.76,1.46,0,2.66.46,3.59,1.37.93.91,1.4,2.33,1.4,4.25v10.95h-2.51v-10.95c0-1.21-.33-2.07-.99-2.59-.66-.52-1.44-.78-2.33-.78-1.15,0-2.04.35-2.67,1.04-.63.69-.95,1.56-.95,2.62v10.65h-2.56v-11.21c0-.93-.3-1.68-.91-2.25-.6-.58-1.38-.86-2.33-.86-.65,0-1.26.17-1.83.52-.56.35-1.02.83-1.36,1.45-.34.61-.51,1.32-.51,2.12v10.23h-2.51ZM549.64,90.42v-16.36h2.51v16.36h-2.51ZM550.92,71.32c-.49,0-.91-.17-1.27-.5-.35-.33-.52-.74-.52-1.2s.17-.87.52-1.2c.36-.33.78-.5,1.27-.5s.91.17,1.26.5c.36.33.53.74.53,1.2s-.18.87-.53,1.2c-.35.33-.77.5-1.26.5ZM559.27,68.6v21.82h-2.51v-21.82h2.51ZM565.49,96.55c-.43,0-.81-.04-1.14-.11-.33-.06-.56-.13-.69-.19l.64-2.22c.61.16,1.15.21,1.62.17.47-.04.88-.25,1.25-.63.37-.37.71-.97,1.01-1.8l.47-1.28-6.05-16.45h2.73l4.52,13.04h.17l4.52-13.04h2.73l-6.95,18.75c-.31.85-.7,1.54-1.16,2.1-.46.56-1,.98-1.61,1.25-.6.27-1.29.4-2.05.4ZM588.16,70.94v-2.34h16.36v2.34h-6.86v19.47h-2.64v-19.47h-6.86ZM610.78,80.57v9.84h-2.51v-21.82h2.51v8.01h.21c.38-.85.96-1.52,1.73-2.01.77-.5,1.8-.76,3.09-.76,1.12,0,2.09.22,2.93.67.84.44,1.49,1.12,1.95,2.03.47.91.7,2.07.7,3.47v10.4h-2.51v-10.23c0-1.3-.34-2.3-1.01-3.01-.67-.72-1.59-1.08-2.78-1.08-.82,0-1.56.17-2.22.52-.65.35-1.16.86-1.53,1.52-.37.67-.55,1.48-.55,2.43ZM632.63,90.76c-1.48,0-2.77-.35-3.89-1.05-1.11-.7-1.97-1.69-2.6-2.95-.62-1.26-.93-2.74-.93-4.43s.31-3.19.93-4.46c.62-1.27,1.49-2.26,2.6-2.96,1.11-.7,2.41-1.05,3.89-1.05s2.77.35,3.88,1.05c1.11.7,1.98,1.69,2.6,2.96.62,1.27.94,2.76.94,4.46s-.31,3.17-.94,4.43c-.62,1.26-1.48,2.25-2.6,2.95-1.11.7-2.4,1.05-3.88,1.05ZM632.63,88.5c1.12,0,2.05-.29,2.77-.86.72-.58,1.26-1.33,1.61-2.27.35-.94.52-1.95.52-3.05s-.17-2.11-.52-3.06c-.35-.94-.88-1.71-1.61-2.29-.72-.58-1.65-.87-2.77-.87s-2.04.29-2.77.87c-.72.58-1.26,1.35-1.61,2.29-.35.94-.52,1.96-.52,3.06s.17,2.11.52,3.05.88,1.69,1.61,2.27c.73.58,1.65.86,2.77.86ZM643.89,90.42v-16.36h2.43v2.56h.21c.34-.87.89-1.55,1.65-2.03.76-.49,1.67-.74,2.74-.74s1.98.24,2.7.74c.72.48,1.29,1.16,1.69,2.03h.17c.42-.85,1.05-1.52,1.89-2.01.84-.5,1.84-.76,3.02-.76,1.46,0,2.66.46,3.59,1.37.93.91,1.39,2.33,1.39,4.25v10.95h-2.51v-10.95c0-1.21-.33-2.07-.99-2.59-.66-.52-1.44-.78-2.33-.78-1.15,0-2.04.35-2.67,1.04-.63.69-.95,1.56-.95,2.62v10.65h-2.56v-11.21c0-.93-.3-1.68-.91-2.25-.6-.58-1.38-.86-2.33-.86-.65,0-1.26.17-1.83.52-.56.35-1.02.83-1.36,1.45-.34.61-.51,1.32-.51,2.12v10.23h-2.51ZM669.96,96.55v-22.5h2.43v2.6h.3c.18-.28.44-.65.77-1.09.33-.45.81-.85,1.43-1.19.62-.36,1.47-.53,2.53-.53,1.38,0,2.59.34,3.64,1.03,1.05.69,1.87,1.67,2.46,2.93.59,1.26.88,2.76.88,4.47s-.29,3.24-.88,4.51c-.59,1.26-1.41,2.24-2.45,2.94-1.04.69-2.25,1.03-3.61,1.03-1.05,0-1.89-.17-2.53-.52-.63-.36-1.12-.76-1.46-1.2-.34-.45-.6-.83-.79-1.13h-.21v8.65h-2.51ZM672.43,82.23c0,1.24.18,2.33.54,3.27.36.94.89,1.67,1.59,2.21.7.53,1.55.79,2.56.79s1.93-.28,2.63-.83c.71-.56,1.24-1.31,1.6-2.26.36-.95.54-2.01.54-3.17s-.18-2.19-.53-3.11c-.35-.93-.88-1.67-1.59-2.21-.7-.55-1.59-.82-2.65-.82s-1.88.26-2.58.78c-.7.51-1.22,1.23-1.58,2.15-.35.92-.53,1.99-.53,3.21ZM699.83,77.72l-2.26.64c-.14-.38-.35-.74-.63-1.1-.27-.36-.64-.66-1.11-.89-.47-.23-1.07-.35-1.8-.35-1,0-1.84.23-2.5.69-.66.45-.99,1.03-.99,1.74,0,.62.23,1.12.68,1.48.46.36,1.16.66,2.13.91l2.43.6c1.46.36,2.55.9,3.27,1.63.72.72,1.08,1.66,1.08,2.8,0,.94-.27,1.78-.81,2.51-.53.74-1.28,1.32-2.24,1.75-.96.43-2.07.64-3.35.64-1.67,0-3.05-.36-4.14-1.09-1.09-.72-1.79-1.78-2.08-3.17l2.39-.6c.23.88.66,1.54,1.29,1.98.64.44,1.47.66,2.5.66,1.17,0,2.1-.25,2.79-.75.7-.5,1.04-1.11,1.04-1.81,0-.57-.2-1.04-.6-1.43-.4-.39-1.01-.68-1.83-.87l-2.73-.64c-1.5-.36-2.6-.91-3.3-1.65-.7-.75-1.04-1.69-1.04-2.82,0-.92.26-1.74.78-2.45.53-.71,1.24-1.27,2.14-1.67.91-.4,1.94-.61,3.09-.61,1.62,0,2.89.36,3.81,1.07.93.71,1.59,1.65,1.98,2.81ZM710.56,90.76c-1.48,0-2.77-.35-3.89-1.05-1.11-.7-1.97-1.69-2.6-2.95-.62-1.26-.93-2.74-.93-4.43s.31-3.19.93-4.46c.62-1.27,1.49-2.26,2.6-2.96,1.11-.7,2.41-1.05,3.89-1.05s2.77.35,3.88,1.05c1.12.7,1.98,1.69,2.6,2.96.62,1.27.94,2.76.94,4.46s-.31,3.17-.94,4.43c-.62,1.26-1.48,2.25-2.6,2.95-1.11.7-2.4,1.05-3.88,1.05ZM710.56,88.5c1.12,0,2.04-.29,2.77-.86.72-.58,1.26-1.33,1.61-2.27.35-.94.52-1.95.52-3.05s-.17-2.11-.52-3.06c-.35-.94-.88-1.71-1.61-2.29-.73-.58-1.65-.87-2.77-.87s-2.05.29-2.77.87c-.72.58-1.26,1.35-1.61,2.29-.35.94-.52,1.96-.52,3.06s.17,2.11.52,3.05c.35.94.88,1.69,1.61,2.27.72.58,1.65.86,2.77.86ZM724.33,80.57v9.84h-2.51v-16.36h2.43v2.56h.21c.38-.83.96-1.5,1.75-2,.78-.51,1.79-.77,3.02-.77,1.11,0,2.08.23,2.91.68.83.45,1.48,1.13,1.94,2.05.46.91.69,2.06.69,3.45v10.4h-2.51v-10.23c0-1.29-.33-2.29-1-3-.67-.72-1.58-1.09-2.75-1.09-.8,0-1.52.17-2.15.52-.62.35-1.12.86-1.48,1.52-.36.67-.54,1.48-.54,2.43Z"/>
  </g>
  <g>
    <rect class="cls-1" x="484" y="128.61" width="905.12" height="59.33" rx="20" ry="20"/>
    <path d="M514.33,147.2h2.64v15.6c0,1.39-.26,2.58-.77,3.55-.51.97-1.23,1.71-2.16,2.21-.93.51-2.03.76-3.29.76-1.19,0-2.25-.22-3.19-.65-.93-.44-1.66-1.07-2.19-1.88-.53-.81-.8-1.77-.8-2.89h2.6c0,.62.15,1.16.46,1.62.31.46.74.81,1.28,1.07.54.26,1.15.38,1.84.38.76,0,1.41-.16,1.94-.48.53-.32.94-.79,1.22-1.41.28-.62.43-1.39.43-2.29v-15.6ZM526.74,169.41c-1.04,0-1.98-.2-2.82-.59-.84-.4-1.52-.97-2.01-1.72-.5-.75-.75-1.66-.75-2.73,0-.94.18-1.7.55-2.28.37-.59.86-1.05,1.48-1.39.62-.33,1.3-.58,2.05-.75.75-.17,1.51-.3,2.27-.4.99-.13,1.8-.22,2.42-.29.62-.07,1.08-.19,1.36-.35.29-.16.44-.45.44-.85v-.09c0-1.05-.29-1.87-.86-2.45-.57-.58-1.43-.87-2.59-.87s-2.14.26-2.82.79c-.68.53-1.16,1.09-1.44,1.68l-2.39-.85c.43-.99.99-1.77,1.7-2.32.72-.56,1.5-.95,2.34-1.17.85-.23,1.69-.34,2.51-.34.53,0,1.13.06,1.81.19.69.12,1.35.37,1.99.76.65.38,1.18.96,1.61,1.74.43.77.64,1.81.64,3.11v10.78h-2.51v-2.22h-.13c-.17.35-.45.74-.85,1.14-.4.4-.93.75-1.59,1.03-.66.28-1.47.43-2.42.43ZM527.12,167.15c.99,0,1.83-.2,2.51-.59.69-.39,1.21-.89,1.55-1.51.36-.62.53-1.27.53-1.95v-2.3c-.11.13-.34.24-.7.35-.35.1-.77.19-1.24.27-.46.07-.91.13-1.35.19-.43.05-.79.09-1.05.13-.65.09-1.27.22-1.83.42-.56.18-1.02.46-1.36.84-.34.37-.51.87-.51,1.51,0,.87.32,1.53.97,1.98.65.44,1.48.66,2.48.66ZM545.47,169.36c-1.53,0-2.85-.36-3.96-1.09-1.11-.72-1.96-1.72-2.56-2.99-.6-1.27-.9-2.72-.9-4.36s.31-3.13.92-4.4c.62-1.28,1.48-2.28,2.58-2.99,1.11-.72,2.4-1.09,3.88-1.09,1.15,0,2.19.21,3.11.64.92.43,1.68,1.02,2.27,1.79.59.77.96,1.66,1.1,2.68h-2.51c-.19-.75-.62-1.41-1.28-1.98-.65-.58-1.53-.87-2.64-.87-.98,0-1.84.26-2.58.77-.73.51-1.3,1.22-1.71,2.14-.41.92-.61,1.99-.61,3.23s.2,2.36.6,3.3c.4.94.97,1.67,1.7,2.18.74.52,1.61.78,2.6.78.65,0,1.25-.11,1.78-.34.53-.23.98-.55,1.35-.98.37-.43.63-.94.79-1.53h2.51c-.14.97-.49,1.84-1.05,2.61-.55.77-1.29,1.38-2.2,1.83-.91.45-1.97.67-3.18.67ZM562.23,169.36c-1.48,0-2.77-.35-3.89-1.05-1.11-.7-1.97-1.69-2.6-2.95-.62-1.26-.93-2.74-.93-4.43s.31-3.19.93-4.46c.62-1.27,1.49-2.26,2.6-2.96,1.11-.7,2.41-1.06,3.89-1.06s2.77.35,3.88,1.06c1.11.7,1.98,1.69,2.6,2.96.62,1.27.94,2.76.94,4.46s-.31,3.17-.94,4.43c-.62,1.26-1.48,2.25-2.6,2.95-1.11.7-2.4,1.05-3.88,1.05ZM562.23,167.1c1.12,0,2.05-.29,2.77-.86.72-.57,1.26-1.33,1.61-2.27.35-.94.52-1.95.52-3.05s-.17-2.11-.52-3.06c-.35-.94-.88-1.71-1.61-2.29-.72-.58-1.65-.87-2.77-.87s-2.05.29-2.77.87c-.73.58-1.26,1.35-1.61,2.29-.35.95-.52,1.96-.52,3.06s.17,2.11.52,3.05c.35.94.88,1.69,1.61,2.27.72.57,1.65.86,2.77.86ZM573.83,169.02v-21.82h2.52v8.05h.21c.18-.28.44-.65.77-1.09.33-.45.81-.85,1.43-1.19.62-.35,1.47-.53,2.54-.53,1.38,0,2.59.34,3.64,1.03,1.05.69,1.87,1.67,2.46,2.93.59,1.26.88,2.76.88,4.47s-.29,3.24-.88,4.51c-.59,1.26-1.41,2.24-2.45,2.94-1.04.69-2.25,1.03-3.61,1.03-1.05,0-1.89-.17-2.52-.52-.63-.36-1.12-.76-1.46-1.2-.34-.46-.6-.83-.79-1.13h-.3v2.51h-2.43ZM576.3,160.84c0,1.24.18,2.33.54,3.27.36.94.89,1.67,1.59,2.21.7.52,1.55.79,2.56.79s1.93-.28,2.63-.83c.71-.56,1.24-1.31,1.6-2.26.36-.95.54-2.01.54-3.17s-.18-2.19-.53-3.11c-.35-.93-.88-1.67-1.59-2.21-.7-.55-1.59-.82-2.65-.82s-1.88.26-2.58.78c-.7.51-1.22,1.23-1.58,2.15-.35.92-.53,1.99-.53,3.21ZM600.9,169.02v-21.82h2.64v9.72h11.63v-9.72h2.64v21.82h-2.64v-9.76h-11.63v9.76h-2.64ZM627.58,169.41c-1.04,0-1.98-.2-2.82-.59-.85-.4-1.52-.97-2.01-1.72-.5-.75-.75-1.66-.75-2.73,0-.94.18-1.7.55-2.28.37-.59.86-1.05,1.48-1.39.62-.33,1.3-.58,2.04-.75.75-.17,1.51-.3,2.27-.4,1-.13,1.8-.22,2.42-.29.62-.07,1.08-.19,1.36-.35.29-.16.44-.45.44-.85v-.09c0-1.05-.29-1.87-.86-2.45-.57-.58-1.43-.87-2.59-.87s-2.14.26-2.82.79c-.68.53-1.16,1.09-1.44,1.68l-2.39-.85c.43-.99.99-1.77,1.7-2.32.72-.56,1.5-.95,2.34-1.17.85-.23,1.69-.34,2.51-.34.53,0,1.13.06,1.81.19.69.12,1.35.37,1.99.76.65.38,1.18.96,1.61,1.74.43.77.64,1.81.64,3.11v10.78h-2.51v-2.22h-.13c-.17.35-.45.74-.85,1.14-.4.4-.93.75-1.59,1.03-.66.28-1.47.43-2.42.43ZM627.96,167.15c.99,0,1.83-.2,2.51-.59.69-.39,1.21-.89,1.55-1.51.35-.62.53-1.27.53-1.95v-2.3c-.11.13-.34.24-.7.35-.36.1-.77.19-1.24.27-.46.07-.91.13-1.35.19-.43.05-.78.09-1.05.13-.65.09-1.26.22-1.83.42-.56.18-1.02.46-1.36.84-.34.37-.51.87-.51,1.51,0,.87.32,1.53.97,1.98.65.44,1.48.66,2.48.66ZM639.67,169.02v-16.36h2.43v2.47h.17c.3-.81.84-1.47,1.62-1.97.78-.51,1.66-.76,2.64-.76.18,0,.41,0,.69.01.28,0,.49.02.63.03v2.56c-.09-.02-.28-.05-.59-.1-.3-.05-.61-.07-.95-.07-.8,0-1.51.17-2.13.5-.62.33-1.11.78-1.47,1.36-.35.57-.53,1.23-.53,1.97v10.36h-2.51ZM650.83,169.02v-16.36h2.43v2.47h.17c.3-.81.84-1.47,1.62-1.97.78-.51,1.66-.76,2.64-.76.18,0,.41,0,.69.01.28,0,.49.02.63.03v2.56c-.08-.02-.28-.05-.59-.1-.3-.05-.61-.07-.95-.07-.8,0-1.51.17-2.13.5-.62.33-1.11.78-1.47,1.36-.35.57-.53,1.23-.53,1.97v10.36h-2.51ZM661.99,169.02v-16.36h2.51v16.36h-2.51ZM663.27,149.93c-.49,0-.91-.17-1.27-.5-.35-.33-.52-.74-.52-1.2s.17-.87.52-1.2c.35-.33.78-.5,1.27-.5s.91.17,1.26.5c.36.33.53.74.53,1.2s-.18.87-.53,1.2c-.35.33-.77.5-1.26.5ZM680.7,156.32l-2.26.64c-.14-.38-.35-.74-.63-1.1-.27-.36-.64-.66-1.11-.9-.47-.24-1.07-.35-1.8-.35-1,0-1.84.23-2.5.69-.66.45-.99,1.03-.99,1.74,0,.62.23,1.12.68,1.48.45.36,1.16.66,2.13.9l2.43.6c1.46.35,2.55.9,3.27,1.63.72.72,1.08,1.66,1.08,2.8,0,.94-.27,1.78-.81,2.51-.53.74-1.28,1.32-2.24,1.75s-2.07.64-3.35.64c-1.67,0-3.05-.36-4.14-1.09-1.09-.72-1.79-1.78-2.08-3.17l2.39-.6c.23.88.66,1.54,1.29,1.98.64.44,1.47.66,2.5.66,1.17,0,2.1-.25,2.79-.75.7-.5,1.04-1.11,1.04-1.81,0-.57-.2-1.04-.6-1.43-.4-.39-1.01-.68-1.83-.87l-2.73-.64c-1.5-.35-2.6-.9-3.3-1.65-.7-.75-1.04-1.69-1.04-2.82,0-.92.26-1.74.78-2.45.53-.71,1.24-1.27,2.14-1.67.91-.4,1.94-.61,3.09-.61,1.62,0,2.89.35,3.81,1.07.93.71,1.59,1.65,1.98,2.81Z"/>
  </g>
  <g>
    <rect class="cls-1" x="484" y="207.21" width="905.12" height="59.33" rx="20" ry="20"/>
    <path d="M524.38,236.72c0,2.3-.42,4.29-1.25,5.97-.83,1.68-1.97,2.97-3.42,3.88-1.45.91-3.1,1.36-4.97,1.36s-3.51-.45-4.96-1.36c-1.45-.91-2.59-2.2-3.42-3.88-.83-1.68-1.25-3.67-1.25-5.97s.42-4.29,1.25-5.97c.83-1.68,1.97-2.97,3.42-3.88,1.45-.91,3.1-1.36,4.96-1.36s3.52.45,4.97,1.36c1.45.91,2.59,2.2,3.42,3.88s1.25,3.67,1.25,5.97ZM521.83,236.72c0-1.89-.32-3.48-.95-4.78-.62-1.3-1.47-2.28-2.55-2.95-1.07-.67-2.26-1-3.58-1s-2.52.33-3.59,1c-1.07.67-1.91,1.65-2.55,2.95-.62,1.3-.94,2.89-.94,4.78s.31,3.48.94,4.78c.63,1.3,1.48,2.28,2.55,2.95,1.07.67,2.27,1,3.59,1s2.51-.33,3.58-1c1.07-.67,1.92-1.65,2.55-2.95.63-1.3.95-2.9.95-4.78ZM531,225.81v21.82h-2.52v-21.82h2.52ZM535.6,247.63v-16.36h2.51v16.36h-2.51ZM536.88,228.54c-.49,0-.91-.17-1.27-.5-.35-.33-.52-.74-.52-1.2s.17-.87.52-1.2c.35-.33.78-.5,1.27-.5s.91.17,1.26.5c.35.33.53.74.53,1.2s-.18.87-.53,1.2c-.35.33-.77.5-1.26.5ZM556.1,231.27l-6.05,16.36h-2.56l-6.05-16.36h2.73l4.52,13.04h.17l4.52-13.04h2.73ZM559.42,247.63v-16.36h2.51v16.36h-2.51ZM560.7,228.54c-.49,0-.91-.17-1.27-.5-.35-.33-.52-.74-.52-1.2s.17-.87.52-1.2c.35-.33.78-.5,1.27-.5s.91.17,1.26.5c.36.33.53.74.53,1.2s-.18.87-.53,1.2c-.35.33-.77.5-1.26.5ZM571.36,248.01c-1.04,0-1.98-.2-2.82-.59-.84-.4-1.52-.97-2.01-1.71-.5-.75-.75-1.66-.75-2.73,0-.94.18-1.7.55-2.28.37-.59.86-1.05,1.48-1.38.62-.33,1.3-.58,2.04-.75.75-.17,1.51-.31,2.27-.4.99-.13,1.8-.22,2.42-.29.62-.07,1.08-.19,1.36-.35.29-.16.44-.45.44-.85v-.09c0-1.05-.29-1.87-.86-2.45-.57-.58-1.43-.87-2.59-.87s-2.14.26-2.82.79c-.68.52-1.16,1.09-1.44,1.68l-2.39-.85c.43-.99.99-1.77,1.7-2.32.72-.56,1.5-.95,2.34-1.17.85-.23,1.69-.34,2.51-.34.53,0,1.13.06,1.81.19.69.12,1.35.37,1.99.76.65.38,1.18.96,1.61,1.74.43.77.64,1.81.64,3.11v10.78h-2.51v-2.22h-.13c-.17.36-.45.74-.85,1.14-.4.4-.93.75-1.59,1.03-.66.28-1.47.43-2.42.43ZM571.74,245.75c.99,0,1.83-.19,2.51-.59.69-.39,1.21-.9,1.56-1.51.36-.62.53-1.27.53-1.95v-2.3c-.11.13-.34.24-.7.35-.36.1-.77.19-1.24.27-.46.07-.91.14-1.35.19-.43.05-.78.09-1.05.13-.65.09-1.27.22-1.83.42-.56.18-1.02.47-1.36.84-.34.37-.51.87-.51,1.51,0,.87.32,1.53.97,1.98.65.44,1.48.66,2.48.66ZM609.78,232.63h-2.64c-.16-.76-.43-1.43-.82-2-.38-.58-.85-1.06-1.41-1.45-.55-.4-1.15-.7-1.82-.89-.67-.2-1.36-.3-2.09-.3-1.32,0-2.52.33-3.59,1-1.07.67-1.91,1.65-2.55,2.95-.62,1.3-.94,2.89-.94,4.78s.31,3.48.94,4.78c.63,1.3,1.48,2.28,2.55,2.95,1.07.67,2.27,1,3.59,1,.73,0,1.42-.1,2.09-.3.67-.2,1.28-.49,1.82-.89.55-.4,1.02-.88,1.41-1.46.39-.58.66-1.25.82-2h2.64c-.2,1.11-.56,2.11-1.09,2.99-.53.88-1.18,1.63-1.96,2.25-.78.61-1.66,1.08-2.63,1.4-.97.32-2,.48-3.1.48-1.86,0-3.52-.45-4.96-1.36-1.45-.91-2.59-2.2-3.42-3.88-.83-1.68-1.25-3.67-1.25-5.97s.42-4.29,1.25-5.97,1.97-2.97,3.42-3.88c1.45-.91,3.1-1.36,4.96-1.36,1.1,0,2.13.16,3.1.48.97.32,1.85.79,2.63,1.41.78.61,1.43,1.36,1.96,2.24.53.87.89,1.87,1.09,2.99ZM618.53,248.01c-1.04,0-1.98-.2-2.82-.59-.85-.4-1.52-.97-2.01-1.71-.5-.75-.75-1.66-.75-2.73,0-.94.18-1.7.55-2.28.37-.59.86-1.05,1.48-1.38.62-.33,1.3-.58,2.04-.75.75-.17,1.51-.31,2.27-.4.99-.13,1.8-.22,2.42-.29.62-.07,1.08-.19,1.36-.35.29-.16.44-.45.44-.85v-.09c0-1.05-.29-1.87-.86-2.45-.57-.58-1.43-.87-2.59-.87s-2.14.26-2.82.79c-.68.52-1.16,1.09-1.44,1.68l-2.39-.85c.43-.99.99-1.77,1.7-2.32.72-.56,1.5-.95,2.34-1.17.85-.23,1.69-.34,2.51-.34.53,0,1.13.06,1.81.19.69.12,1.35.37,1.99.76.65.38,1.18.96,1.61,1.74.43.77.64,1.81.64,3.11v10.78h-2.51v-2.22h-.13c-.17.36-.45.74-.85,1.14s-.93.75-1.59,1.03c-.66.28-1.47.43-2.42.43ZM618.91,245.75c.99,0,1.83-.19,2.51-.59.69-.39,1.21-.9,1.56-1.51.35-.62.53-1.27.53-1.95v-2.3c-.11.13-.34.24-.7.35-.35.1-.77.19-1.24.27-.46.07-.91.14-1.35.19-.43.05-.78.09-1.05.13-.65.09-1.26.22-1.83.42-.56.18-1.01.47-1.36.84-.34.37-.51.87-.51,1.51,0,.87.32,1.53.97,1.98.65.44,1.48.66,2.48.66ZM630.61,247.63v-16.36h2.43v2.47h.17c.3-.81.84-1.47,1.62-1.97.78-.5,1.66-.76,2.64-.76.18,0,.42,0,.69.01.28,0,.49.02.63.03v2.56c-.09-.02-.28-.05-.59-.09-.3-.05-.61-.08-.95-.08-.8,0-1.51.17-2.13.5-.62.33-1.11.78-1.47,1.36-.35.58-.53,1.23-.53,1.97v10.35h-2.52ZM649.92,231.27v2.13h-8.48v-2.13h8.48ZM643.91,227.35h2.51v15.6c0,.71.1,1.24.31,1.6.21.35.48.58.81.7.33.11.68.17,1.05.17.28,0,.51-.01.68-.04.18-.04.32-.06.43-.09l.51,2.26c-.17.06-.41.13-.71.19-.31.07-.69.11-1.16.11-.71,0-1.41-.15-2.09-.46-.68-.31-1.24-.77-1.68-1.4-.44-.62-.66-1.41-.66-2.37v-16.28ZM660.39,247.97c-1.58,0-2.94-.35-4.08-1.04-1.14-.7-2.01-1.68-2.63-2.94-.61-1.26-.92-2.73-.92-4.41s.31-3.15.92-4.43c.62-1.29,1.48-2.29,2.58-3,1.11-.72,2.4-1.09,3.88-1.09.85,0,1.69.14,2.52.43.83.28,1.59.74,2.27,1.38.68.63,1.22,1.47,1.63,2.51.4,1.04.61,2.33.61,3.86v1.07h-12.61v-2.17h10.06c0-.92-.18-1.75-.55-2.47-.36-.73-.88-1.3-1.55-1.71-.67-.42-1.46-.63-2.36-.63-1,0-1.87.25-2.6.75-.72.49-1.28,1.13-1.67,1.92-.39.79-.59,1.63-.59,2.54v1.45c0,1.24.21,2.28.64,3.14.43.85,1.03,1.5,1.8,1.95.77.44,1.66.66,2.67.66.66,0,1.26-.09,1.79-.28.54-.19,1.01-.48,1.4-.85.39-.38.69-.86.91-1.43l2.43.68c-.26.82-.69,1.55-1.29,2.17-.6.62-1.35,1.1-2.24,1.45-.89.34-1.89.51-2.99.51ZM670.98,247.63v-16.36h2.43v2.47h.17c.3-.81.84-1.47,1.62-1.97.78-.5,1.66-.76,2.64-.76.18,0,.42,0,.69.01.28,0,.49.02.63.03v2.56c-.09-.02-.28-.05-.59-.09-.3-.05-.61-.08-.95-.08-.79,0-1.51.17-2.13.5-.62.33-1.11.78-1.47,1.36-.35.58-.53,1.23-.53,1.97v10.35h-2.52Z"/>
  </g>
  <g>
    <rect class="cls-1" x="484" y="285.82" width="905.12" height="59.33" rx="20" ry="20"/>
    <path d="M505.98,304.42h3.15l7.42,18.11h.26l7.41-18.11h3.15v21.82h-2.47v-16.58h-.21l-6.82,16.58h-2.39l-6.82-16.58h-.21v16.58h-2.47v-21.82ZM537.14,326.62c-1.04,0-1.98-.2-2.82-.59-.85-.4-1.52-.97-2.01-1.72-.5-.75-.75-1.66-.75-2.73,0-.94.18-1.7.55-2.28.37-.59.86-1.05,1.48-1.39.62-.33,1.3-.58,2.05-.74.75-.17,1.51-.31,2.27-.4.99-.13,1.8-.22,2.42-.29.62-.07,1.08-.19,1.36-.35.29-.16.44-.45.44-.85v-.08c0-1.05-.29-1.87-.86-2.45-.57-.58-1.43-.87-2.59-.87s-2.14.26-2.82.79c-.68.52-1.16,1.09-1.44,1.68l-2.39-.85c.43-.99.99-1.77,1.7-2.32.72-.56,1.5-.95,2.34-1.17.85-.23,1.69-.34,2.52-.34.52,0,1.13.06,1.81.19.69.12,1.35.37,1.99.76.65.38,1.18.96,1.61,1.74.43.77.64,1.81.64,3.11v10.78h-2.51v-2.22h-.13c-.17.36-.46.74-.85,1.14-.4.4-.93.75-1.59,1.03-.66.29-1.47.43-2.42.43ZM537.52,324.36c1,0,1.83-.2,2.51-.59.69-.39,1.21-.89,1.56-1.51.36-.62.53-1.27.53-1.95v-2.3c-.11.13-.34.24-.7.35-.36.1-.77.19-1.24.27-.46.07-.91.13-1.35.19-.43.05-.79.09-1.05.13-.65.08-1.26.22-1.83.42-.56.18-1.02.46-1.36.84-.34.37-.51.87-.51,1.51,0,.87.32,1.53.97,1.98.65.44,1.48.66,2.48.66ZM560.82,313.54l-2.26.64c-.14-.38-.35-.74-.63-1.1-.27-.36-.64-.66-1.11-.9-.47-.23-1.07-.35-1.8-.35-1,0-1.84.23-2.5.69-.66.46-.99,1.03-.99,1.74,0,.62.23,1.12.68,1.48.45.36,1.16.67,2.13.91l2.43.6c1.46.36,2.55.9,3.27,1.63.72.72,1.08,1.66,1.08,2.8,0,.94-.27,1.78-.81,2.52-.53.74-1.28,1.32-2.24,1.75-.96.43-2.07.64-3.35.64-1.67,0-3.05-.36-4.14-1.09-1.09-.72-1.79-1.78-2.08-3.17l2.39-.6c.23.88.66,1.54,1.29,1.98.64.44,1.47.66,2.5.66,1.17,0,2.1-.25,2.79-.75.7-.5,1.04-1.11,1.04-1.81,0-.57-.2-1.04-.6-1.43-.4-.39-1.01-.68-1.83-.87l-2.73-.64c-1.5-.36-2.6-.91-3.3-1.65-.7-.75-1.04-1.69-1.04-2.82,0-.92.26-1.74.78-2.45.53-.71,1.24-1.27,2.14-1.67.91-.4,1.94-.61,3.09-.61,1.62,0,2.89.36,3.81,1.07.93.71,1.59,1.65,1.98,2.81ZM571.55,326.58c-1.48,0-2.77-.35-3.89-1.05-1.11-.7-1.98-1.69-2.6-2.95-.62-1.26-.93-2.74-.93-4.43s.31-3.19.93-4.46c.62-1.27,1.49-2.26,2.6-2.96,1.11-.7,2.41-1.05,3.89-1.05s2.77.35,3.88,1.05c1.11.7,1.98,1.69,2.6,2.96.62,1.27.94,2.76.94,4.46s-.31,3.17-.94,4.43c-.62,1.26-1.48,2.25-2.6,2.95-1.11.7-2.4,1.05-3.88,1.05ZM571.55,324.32c1.12,0,2.05-.29,2.77-.86.73-.58,1.26-1.33,1.61-2.27.35-.94.52-1.95.52-3.05s-.17-2.11-.52-3.06c-.35-.95-.88-1.71-1.61-2.29-.72-.58-1.65-.87-2.77-.87s-2.04.29-2.77.87c-.72.58-1.26,1.35-1.61,2.29-.35.95-.52,1.96-.52,3.06s.17,2.11.52,3.05c.35.94.88,1.69,1.61,2.27.73.58,1.65.86,2.77.86ZM585.32,316.39v9.84h-2.51v-16.36h2.43v2.56h.21c.38-.83.97-1.5,1.75-2,.78-.51,1.79-.77,3.03-.77,1.11,0,2.08.23,2.91.68.83.45,1.48,1.13,1.94,2.05.46.91.69,2.06.69,3.45v10.4h-2.51v-10.23c0-1.29-.33-2.29-1-3-.67-.73-1.58-1.09-2.75-1.09-.8,0-1.52.17-2.15.52-.62.35-1.12.86-1.48,1.52-.36.67-.54,1.48-.54,2.43ZM609.13,326.24v-21.82h7.63c1.52,0,2.77.26,3.76.79.99.52,1.72,1.22,2.21,2.1.48.87.72,1.84.72,2.91,0,.94-.17,1.71-.5,2.32-.33.61-.76,1.09-1.3,1.45-.53.36-1.11.62-1.74.79v.21c.67.04,1.34.28,2.01.7s1.24,1.04,1.69,1.83c.45.79.68,1.77.68,2.92s-.25,2.08-.75,2.95c-.5.87-1.28,1.57-2.36,2.08-1.07.51-2.47.77-4.19.77h-7.88ZM611.77,323.89h5.24c1.72,0,2.95-.33,3.67-1,.73-.67,1.1-1.49,1.1-2.45,0-.74-.19-1.42-.56-2.05-.38-.63-.91-1.14-1.61-1.51-.7-.38-1.52-.57-2.47-.57h-5.37v7.58ZM611.77,314.01h4.9c.79,0,1.51-.16,2.15-.47.65-.31,1.16-.75,1.53-1.32.38-.57.58-1.24.58-2,0-.96-.33-1.77-1-2.44-.67-.67-1.73-1.01-3.17-1.01h-4.99v7.24ZM628.3,326.24v-16.36h2.43v2.47h.17c.3-.81.84-1.47,1.62-1.97.78-.5,1.66-.76,2.64-.76.18,0,.41,0,.69.01.28,0,.49.02.63.03v2.56c-.09-.02-.28-.05-.59-.1-.3-.05-.61-.07-.95-.07-.8,0-1.51.17-2.13.5-.62.33-1.11.78-1.47,1.36-.35.57-.53,1.23-.53,1.97v10.35h-2.51ZM645.61,326.58c-1.48,0-2.77-.35-3.89-1.05-1.11-.7-1.97-1.69-2.6-2.95-.62-1.26-.93-2.74-.93-4.43s.31-3.19.93-4.46c.62-1.27,1.49-2.26,2.6-2.96,1.11-.7,2.41-1.05,3.89-1.05s2.77.35,3.88,1.05c1.11.7,1.98,1.69,2.6,2.96.62,1.27.94,2.76.94,4.46s-.31,3.17-.94,4.43c-.62,1.26-1.48,2.25-2.6,2.95-1.11.7-2.4,1.05-3.88,1.05ZM645.61,324.32c1.12,0,2.04-.29,2.77-.86.72-.58,1.26-1.33,1.61-2.27.35-.94.52-1.95.52-3.05s-.17-2.11-.52-3.06c-.35-.95-.88-1.71-1.61-2.29-.73-.58-1.65-.87-2.77-.87s-2.05.29-2.77.87c-.72.58-1.26,1.35-1.61,2.29-.35.95-.52,1.96-.52,3.06s.17,2.11.52,3.05c.35.94.88,1.69,1.61,2.27.72.58,1.65.86,2.77.86ZM663.51,326.58c-1.48,0-2.77-.35-3.89-1.05-1.11-.7-1.98-1.69-2.6-2.95-.62-1.26-.93-2.74-.93-4.43s.31-3.19.93-4.46c.62-1.27,1.49-2.26,2.6-2.96,1.11-.7,2.41-1.05,3.89-1.05s2.77.35,3.88,1.05c1.11.7,1.98,1.69,2.6,2.96.62,1.27.94,2.76.94,4.46s-.31,3.17-.94,4.43c-.62,1.26-1.48,2.25-2.6,2.95-1.11.7-2.4,1.05-3.88,1.05ZM663.51,324.32c1.12,0,2.05-.29,2.77-.86.72-.58,1.26-1.33,1.61-2.27.35-.94.52-1.95.52-3.05s-.17-2.11-.52-3.06c-.35-.95-.89-1.71-1.61-2.29-.72-.58-1.65-.87-2.77-.87s-2.05.29-2.77.87c-.72.58-1.26,1.35-1.61,2.29-.35.95-.52,1.96-.52,3.06s.17,2.11.52,3.05c.35.94.88,1.69,1.61,2.27.72.58,1.65.86,2.77.86ZM677.11,320.27l-.04-3.11h.51l7.16-7.29h3.11l-7.63,7.71h-.21l-2.9,2.68ZM674.77,326.24v-21.82h2.51v21.82h-2.51ZM685.16,326.24l-6.39-8.1,1.79-1.75,7.8,9.84h-3.2ZM702.67,313.54l-2.26.64c-.14-.38-.35-.74-.63-1.1-.27-.36-.64-.66-1.11-.9-.47-.23-1.07-.35-1.8-.35-1,0-1.84.23-2.5.69-.66.46-.99,1.03-.99,1.74,0,.62.23,1.12.68,1.48.46.36,1.17.67,2.13.91l2.43.6c1.46.36,2.55.9,3.27,1.63.72.72,1.08,1.66,1.08,2.8,0,.94-.27,1.78-.81,2.52-.53.74-1.28,1.32-2.24,1.75-.96.43-2.07.64-3.34.64-1.67,0-3.05-.36-4.14-1.09-1.09-.72-1.79-1.78-2.08-3.17l2.39-.6c.23.88.66,1.54,1.29,1.98.64.44,1.47.66,2.5.66,1.17,0,2.1-.25,2.79-.75.7-.5,1.04-1.11,1.04-1.81,0-.57-.2-1.04-.6-1.43-.4-.39-1.01-.68-1.83-.87l-2.73-.64c-1.5-.36-2.6-.91-3.3-1.65-.7-.75-1.04-1.69-1.04-2.82,0-.92.26-1.74.78-2.45.52-.71,1.24-1.27,2.14-1.67.91-.4,1.94-.61,3.09-.61,1.62,0,2.89.36,3.81,1.07.93.71,1.59,1.65,1.98,2.81Z"/>
  </g>
  <g>
    <rect class="cls-1" x="484" y="364.43" width="905.12" height="59.33" rx="20" ry="20"/>
    <path d="M508.62,383.02v21.82h-2.64v-21.82h2.64ZM525.16,392.14l-2.26.64c-.14-.38-.35-.74-.63-1.1-.27-.36-.64-.66-1.11-.9-.47-.23-1.07-.35-1.8-.35-1,0-1.84.23-2.5.69-.66.45-.99,1.03-.99,1.74,0,.62.23,1.12.68,1.48.45.36,1.16.66,2.13.91l2.43.6c1.46.35,2.55.9,3.27,1.63.72.73,1.08,1.66,1.08,2.8,0,.94-.27,1.78-.81,2.51-.53.74-1.28,1.32-2.24,1.75-.96.43-2.07.64-3.35.64-1.67,0-3.05-.36-4.14-1.09-1.09-.72-1.79-1.78-2.08-3.17l2.39-.6c.23.88.66,1.54,1.29,1.98.64.44,1.47.66,2.5.66,1.17,0,2.1-.25,2.79-.75.7-.5,1.04-1.11,1.04-1.81,0-.57-.2-1.04-.6-1.43-.4-.39-1.01-.68-1.83-.87l-2.73-.64c-1.5-.36-2.6-.91-3.3-1.65-.7-.75-1.04-1.69-1.04-2.82,0-.92.26-1.74.78-2.45.53-.71,1.24-1.27,2.14-1.67.91-.4,1.94-.61,3.09-.61,1.62,0,2.89.36,3.81,1.07.93.71,1.59,1.65,1.98,2.81ZM534.06,405.23c-1.04,0-1.98-.2-2.82-.59-.85-.4-1.52-.97-2.01-1.72-.5-.75-.75-1.66-.75-2.73,0-.94.18-1.7.55-2.28.37-.59.86-1.05,1.48-1.39.62-.33,1.3-.58,2.04-.75.75-.17,1.51-.3,2.27-.4.99-.13,1.8-.22,2.42-.29.62-.07,1.08-.19,1.36-.35.29-.16.44-.45.44-.85v-.08c0-1.05-.29-1.87-.86-2.45-.57-.58-1.43-.87-2.59-.87s-2.14.26-2.82.79c-.68.53-1.16,1.09-1.44,1.68l-2.39-.85c.43-.99.99-1.77,1.7-2.32.72-.56,1.5-.95,2.34-1.17.85-.23,1.69-.34,2.51-.34.53,0,1.13.06,1.81.19.69.12,1.35.37,1.99.76.65.38,1.18.96,1.61,1.74.43.77.64,1.81.64,3.11v10.78h-2.52v-2.22h-.13c-.17.35-.45.73-.85,1.14s-.93.75-1.59,1.03c-.66.28-1.47.43-2.42.43ZM534.45,402.97c.99,0,1.83-.2,2.51-.59.69-.39,1.21-.89,1.56-1.51.35-.62.53-1.27.53-1.95v-2.3c-.11.13-.34.24-.7.35-.35.1-.77.19-1.24.27-.46.07-.91.14-1.35.19-.43.05-.78.09-1.05.13-.65.08-1.26.22-1.83.42-.56.18-1.02.47-1.36.84-.34.37-.51.87-.51,1.51,0,.87.32,1.53.97,1.98.65.44,1.48.66,2.48.66ZM546.49,404.84v-21.82h2.52v8.05h.21c.18-.29.44-.65.77-1.09.33-.45.81-.85,1.43-1.19.62-.36,1.47-.53,2.54-.53,1.38,0,2.59.35,3.64,1.03,1.05.69,1.87,1.67,2.46,2.93.59,1.26.88,2.76.88,4.48s-.29,3.23-.88,4.51c-.59,1.26-1.41,2.24-2.45,2.94-1.04.69-2.25,1.03-3.61,1.03-1.05,0-1.89-.17-2.52-.52-.63-.35-1.12-.76-1.46-1.2-.34-.46-.6-.83-.79-1.13h-.3v2.51h-2.43ZM548.96,396.66c0,1.24.18,2.33.54,3.27.36.94.89,1.67,1.59,2.2.7.52,1.55.79,2.56.79s1.93-.28,2.63-.83c.71-.56,1.24-1.31,1.6-2.26.36-.95.54-2.01.54-3.17s-.18-2.19-.53-3.11c-.35-.93-.88-1.66-1.59-2.2-.7-.55-1.59-.82-2.65-.82s-1.88.26-2.58.78c-.7.51-1.22,1.23-1.58,2.15-.35.92-.53,1.98-.53,3.21ZM571.65,405.18c-1.58,0-2.94-.35-4.08-1.04-1.14-.7-2.01-1.68-2.63-2.94-.61-1.26-.92-2.73-.92-4.41s.31-3.15.92-4.43c.62-1.29,1.48-2.29,2.58-3,1.11-.73,2.4-1.09,3.88-1.09.85,0,1.69.14,2.53.43.83.28,1.59.75,2.27,1.39.68.63,1.23,1.47,1.63,2.51.41,1.04.61,2.33.61,3.86v1.07h-12.61v-2.17h10.06c0-.92-.18-1.75-.55-2.47-.36-.72-.88-1.3-1.56-1.71-.67-.42-1.46-.63-2.37-.63-1,0-1.87.25-2.6.74-.72.49-1.28,1.13-1.67,1.92-.39.79-.59,1.63-.59,2.54v1.45c0,1.24.21,2.28.64,3.14.43.85,1.03,1.5,1.8,1.95.77.44,1.66.66,2.67.66.66,0,1.26-.09,1.79-.28.54-.19,1.01-.48,1.4-.85.39-.38.69-.86.91-1.43l2.43.68c-.26.82-.68,1.55-1.29,2.17-.6.62-1.35,1.1-2.24,1.45-.89.34-1.89.51-2.99.51ZM584.76,383.02v21.82h-2.51v-21.82h2.51ZM591.88,383.02v21.82h-2.52v-21.82h2.52ZM601.3,405.23c-1.04,0-1.98-.2-2.82-.59-.85-.4-1.52-.97-2.01-1.72-.5-.75-.75-1.66-.75-2.73,0-.94.18-1.7.55-2.28.37-.59.86-1.05,1.48-1.39.62-.33,1.3-.58,2.05-.75.75-.17,1.51-.3,2.27-.4.99-.13,1.8-.22,2.42-.29.62-.07,1.08-.19,1.36-.35.29-.16.44-.45.44-.85v-.08c0-1.05-.29-1.87-.86-2.45-.57-.58-1.43-.87-2.59-.87s-2.14.26-2.82.79c-.68.53-1.16,1.09-1.44,1.68l-2.39-.85c.43-.99.99-1.77,1.71-2.32.72-.56,1.5-.95,2.34-1.17.85-.23,1.69-.34,2.51-.34.53,0,1.13.06,1.81.19.69.12,1.35.37,1.99.76.65.38,1.18.96,1.61,1.74.43.77.64,1.81.64,3.11v10.78h-2.51v-2.22h-.13c-.17.35-.45.73-.85,1.14-.4.4-.93.75-1.59,1.03-.66.28-1.47.43-2.42.43ZM601.68,402.97c.99,0,1.83-.2,2.52-.59.69-.39,1.21-.89,1.55-1.51.35-.62.53-1.27.53-1.95v-2.3c-.11.13-.34.24-.7.35-.36.1-.77.19-1.24.27-.46.07-.91.14-1.35.19-.43.05-.78.09-1.05.13-.65.08-1.26.22-1.83.42-.56.18-1.02.47-1.36.84-.34.37-.51.87-.51,1.51,0,.87.32,1.53.97,1.98.65.44,1.48.66,2.48.66ZM622.17,404.84v-21.82h7.37c1.7,0,3.1.29,4.2.87,1.09.57,1.9,1.37,2.43,2.38.53,1.01.79,2.15.79,3.44s-.26,2.43-.79,3.42c-.53.99-1.33,1.77-2.42,2.34-1.09.56-2.47.84-4.16.84h-5.97v-2.39h5.88c1.17,0,2.1-.17,2.81-.51.72-.34,1.24-.82,1.56-1.45.33-.63.49-1.38.49-2.26s-.16-1.64-.49-2.29c-.33-.65-.85-1.16-1.57-1.51-.72-.36-1.67-.54-2.84-.54h-4.65v19.47h-2.64ZM632.44,395.04l5.37,9.8h-3.07l-5.28-9.8h2.98ZM647.7,405.18c-1.58,0-2.94-.35-4.08-1.04-1.14-.7-2.01-1.68-2.63-2.94-.61-1.26-.92-2.73-.92-4.41s.3-3.15.92-4.43c.62-1.29,1.48-2.29,2.58-3,1.11-.73,2.4-1.09,3.88-1.09.85,0,1.69.14,2.53.43.83.28,1.59.75,2.27,1.39.68.63,1.23,1.47,1.63,2.51.41,1.04.61,2.33.61,3.86v1.07h-12.61v-2.17h10.06c0-.92-.18-1.75-.55-2.47-.36-.72-.88-1.3-1.56-1.71-.67-.42-1.46-.63-2.37-.63-1,0-1.87.25-2.6.74-.72.49-1.28,1.13-1.67,1.92-.39.79-.59,1.63-.59,2.54v1.45c0,1.24.21,2.28.64,3.14.43.85,1.03,1.5,1.8,1.95.77.44,1.66.66,2.67.66.66,0,1.26-.09,1.79-.28.54-.19,1.01-.48,1.4-.85.39-.38.69-.86.91-1.43l2.43.68c-.26.82-.69,1.55-1.29,2.17-.6.62-1.35,1.1-2.24,1.45-.89.34-1.89.51-2.99.51ZM665.16,405.18c-1.58,0-2.94-.35-4.08-1.04-1.14-.7-2.01-1.68-2.63-2.94-.61-1.26-.92-2.73-.92-4.41s.3-3.15.92-4.43c.62-1.29,1.48-2.29,2.58-3,1.11-.73,2.4-1.09,3.88-1.09.85,0,1.69.14,2.52.43.83.28,1.59.75,2.27,1.39.68.63,1.23,1.47,1.63,2.51.41,1.04.61,2.33.61,3.86v1.07h-12.61v-2.17h10.06c0-.92-.18-1.75-.55-2.47-.36-.72-.88-1.3-1.55-1.71-.67-.42-1.46-.63-2.36-.63-1,0-1.87.25-2.6.74-.73.49-1.28,1.13-1.67,1.92-.39.79-.59,1.63-.59,2.54v1.45c0,1.24.21,2.28.64,3.14.43.85,1.03,1.5,1.8,1.95.77.44,1.66.66,2.67.66.66,0,1.26-.09,1.79-.28.54-.19,1.01-.48,1.4-.85.39-.38.69-.86.91-1.43l2.43.68c-.26.82-.69,1.55-1.29,2.17-.6.62-1.35,1.1-2.24,1.45-.89.34-1.89.51-2.99.51ZM681.94,405.18c-1.36,0-2.57-.35-3.61-1.03-1.04-.7-1.86-1.68-2.45-2.94-.59-1.27-.88-2.77-.88-4.51s.29-3.21.88-4.48c.59-1.26,1.41-2.24,2.46-2.93,1.05-.69,2.27-1.03,3.64-1.03,1.07,0,1.91.18,2.53.53.62.35,1.1.74,1.43,1.19.33.44.59.8.78,1.09h.21v-8.05h2.51v21.82h-2.43v-2.51h-.3c-.18.3-.45.67-.79,1.13-.34.45-.83.85-1.46,1.2-.63.35-1.47.52-2.53.52ZM682.28,402.92c1.01,0,1.86-.26,2.56-.79.7-.53,1.22-1.27,1.59-2.2.36-.95.54-2.04.54-3.27s-.18-2.29-.53-3.21c-.36-.92-.88-1.64-1.58-2.15-.7-.52-1.56-.78-2.58-.78s-1.95.27-2.66.82c-.7.54-1.23,1.27-1.59,2.2-.35.92-.52,1.96-.52,3.11s.18,2.22.53,3.17c.36.94.89,1.7,1.6,2.26.71.55,1.59.83,2.64.83Z"/>
  </g>
  <g>
    <rect class="cls-1" x="484" y="443.03" width="905.12" height="59.33" rx="20" ry="20"/>
    <path d="M523.28,461.63v21.82h-2.56l-11.89-17.13h-.21v17.13h-2.64v-21.82h2.56l11.93,17.17h.21v-17.17h2.6ZM534.87,483.79c-1.48,0-2.77-.35-3.89-1.05-1.11-.7-1.97-1.69-2.6-2.95-.62-1.27-.93-2.74-.93-4.43s.31-3.19.93-4.46c.62-1.27,1.49-2.26,2.6-2.96,1.11-.7,2.41-1.05,3.89-1.05s2.77.35,3.88,1.05c1.11.7,1.98,1.69,2.6,2.96.62,1.27.94,2.76.94,4.46s-.31,3.17-.94,4.43c-.62,1.26-1.48,2.25-2.6,2.95-1.11.7-2.4,1.05-3.88,1.05ZM534.87,481.53c1.12,0,2.04-.29,2.77-.86.73-.58,1.26-1.33,1.61-2.27.35-.94.52-1.95.52-3.05s-.17-2.11-.52-3.06c-.35-.94-.88-1.71-1.61-2.29-.72-.58-1.65-.87-2.77-.87s-2.05.29-2.77.87c-.72.58-1.26,1.35-1.61,2.29-.35.94-.52,1.96-.52,3.06s.17,2.11.52,3.05c.35.94.88,1.69,1.61,2.27.72.57,1.65.86,2.77.86ZM550.94,483.83c-1.04,0-1.98-.2-2.82-.59-.85-.4-1.52-.97-2.01-1.71-.5-.75-.75-1.66-.75-2.73,0-.94.18-1.7.55-2.28.37-.59.86-1.05,1.48-1.38.62-.33,1.3-.58,2.04-.75.75-.17,1.51-.31,2.27-.4.99-.13,1.8-.22,2.42-.29.62-.07,1.08-.19,1.36-.35.29-.16.44-.45.44-.85v-.08c0-1.05-.29-1.87-.86-2.45-.57-.58-1.43-.87-2.59-.87s-2.14.26-2.82.79c-.68.53-1.16,1.09-1.44,1.68l-2.39-.85c.43-.99.99-1.77,1.7-2.32.72-.56,1.5-.95,2.34-1.17.85-.23,1.69-.34,2.51-.34.53,0,1.13.06,1.81.19.69.12,1.35.37,1.99.76.65.38,1.18.96,1.61,1.74.43.77.64,1.81.64,3.11v10.78h-2.52v-2.21h-.13c-.17.35-.45.73-.85,1.14-.4.41-.93.75-1.59,1.03-.66.28-1.47.43-2.42.43ZM551.32,481.57c.99,0,1.83-.2,2.51-.58.69-.39,1.21-.9,1.56-1.51.35-.62.53-1.27.53-1.95v-2.3c-.11.13-.34.24-.7.35-.35.1-.77.19-1.24.27-.46.07-.91.14-1.35.19-.43.05-.78.09-1.05.13-.65.08-1.26.22-1.83.42-.56.18-1.02.46-1.36.84-.34.37-.51.87-.51,1.51,0,.87.32,1.54.97,1.98.65.44,1.48.66,2.48.66ZM565.54,473.61v9.84h-2.52v-21.82h2.52v8.01h.21c.38-.85.96-1.52,1.73-2.01.77-.5,1.8-.76,3.09-.76,1.12,0,2.09.22,2.93.67.84.44,1.49,1.12,1.95,2.04.47.91.7,2.07.7,3.47v10.4h-2.51v-10.23c0-1.3-.34-2.3-1.01-3.01-.67-.72-1.59-1.08-2.78-1.08-.82,0-1.56.17-2.22.52-.65.35-1.16.86-1.53,1.52-.37.67-.55,1.48-.55,2.43ZM588.34,463.98v-2.34h16.36v2.34h-6.86v19.47h-2.64v-19.47h-6.86ZM611.03,483.83c-1.04,0-1.98-.2-2.82-.59-.85-.4-1.52-.97-2.01-1.71-.5-.75-.75-1.66-.75-2.73,0-.94.18-1.7.55-2.28.37-.59.86-1.05,1.48-1.38.62-.33,1.3-.58,2.04-.75.75-.17,1.51-.31,2.27-.4.99-.13,1.8-.22,2.42-.29.62-.07,1.08-.19,1.36-.35.29-.16.44-.45.44-.85v-.08c0-1.05-.29-1.87-.86-2.45-.57-.58-1.43-.87-2.59-.87s-2.14.26-2.82.79c-.68.53-1.16,1.09-1.44,1.68l-2.39-.85c.43-.99.99-1.77,1.7-2.32.72-.56,1.5-.95,2.34-1.17.85-.23,1.69-.34,2.51-.34.53,0,1.13.06,1.81.19.69.12,1.35.37,1.99.76.65.38,1.18.96,1.61,1.74.43.77.64,1.81.64,3.11v10.78h-2.51v-2.21h-.13c-.17.35-.45.73-.85,1.14-.4.41-.93.75-1.59,1.03-.66.28-1.47.43-2.42.43ZM611.41,481.57c.99,0,1.83-.2,2.51-.58.69-.39,1.21-.9,1.56-1.51.35-.62.53-1.27.53-1.95v-2.3c-.11.13-.34.24-.7.35-.35.1-.77.19-1.24.27-.46.07-.91.14-1.35.19-.43.05-.78.09-1.05.13-.65.08-1.26.22-1.83.42-.56.18-1.01.46-1.36.84-.34.37-.51.87-.51,1.51,0,.87.32,1.54.97,1.98.65.44,1.48.66,2.48.66ZM624.15,489.59c-.43,0-.81-.04-1.14-.11-.33-.06-.57-.13-.69-.19l.64-2.22c.61.16,1.15.21,1.62.17.47-.04.88-.25,1.25-.63.37-.37.71-.97,1.01-1.8l.47-1.28-6.05-16.45h2.73l4.52,13.04h.17l4.52-13.04h2.73l-6.95,18.75c-.31.85-.7,1.55-1.16,2.1-.46.56-1,.98-1.61,1.25-.6.27-1.28.4-2.04.4ZM641.74,461.63v21.82h-2.51v-21.82h2.51ZM652.99,483.79c-1.48,0-2.77-.35-3.89-1.05-1.11-.7-1.97-1.69-2.6-2.95-.62-1.27-.93-2.74-.93-4.43s.31-3.19.93-4.46c.62-1.27,1.49-2.26,2.6-2.96,1.11-.7,2.41-1.05,3.89-1.05s2.77.35,3.88,1.05c1.11.7,1.98,1.69,2.6,2.96.62,1.27.94,2.76.94,4.46s-.31,3.17-.94,4.43c-.62,1.26-1.48,2.25-2.6,2.95-1.11.7-2.4,1.05-3.88,1.05ZM652.99,481.53c1.12,0,2.04-.29,2.77-.86.73-.58,1.26-1.33,1.61-2.27.35-.94.52-1.95.52-3.05s-.17-2.11-.52-3.06c-.35-.94-.88-1.71-1.61-2.29-.72-.58-1.65-.87-2.77-.87s-2.05.29-2.77.87c-.72.58-1.26,1.35-1.61,2.29-.35.94-.52,1.96-.52,3.06s.17,2.11.52,3.05c.35.94.88,1.69,1.61,2.27.72.57,1.65.86,2.77.86ZM664.25,483.45v-16.36h2.43v2.47h.17c.3-.81.84-1.47,1.62-1.97.78-.51,1.66-.76,2.64-.76.19,0,.42,0,.69.01.28,0,.49.02.63.03v2.56c-.09-.02-.28-.05-.59-.1-.3-.05-.61-.08-.95-.08-.8,0-1.51.17-2.13.5-.62.33-1.11.78-1.47,1.36-.35.58-.53,1.23-.53,1.97v10.36h-2.51Z"/>
  </g>
  <g>
    <rect class="cls-1" x="484" y="521.64" width="905.12" height="59.33" rx="20" ry="20"/>
    <path d="M505.98,540.24h3.15l7.42,18.11h.26l7.41-18.11h3.15v21.82h-2.47v-16.58h-.21l-6.82,16.58h-2.39l-6.82-16.58h-.21v16.58h-2.47v-21.82ZM532.32,562.06v-16.36h2.52v16.36h-2.52ZM533.6,542.97c-.49,0-.91-.17-1.27-.5-.35-.33-.52-.74-.52-1.2s.17-.87.52-1.2c.36-.33.78-.5,1.27-.5s.91.17,1.26.5c.35.33.53.73.53,1.2s-.18.87-.53,1.2c-.35.33-.77.5-1.26.5ZM544.26,562.44c-1.04,0-1.98-.2-2.82-.59-.84-.4-1.52-.97-2.01-1.72-.5-.75-.75-1.66-.75-2.73,0-.94.18-1.7.55-2.28.37-.59.86-1.05,1.48-1.39.62-.33,1.3-.58,2.05-.75.75-.17,1.51-.3,2.27-.4.99-.13,1.8-.22,2.42-.29.62-.07,1.08-.19,1.36-.35.29-.16.44-.45.44-.85v-.09c0-1.05-.29-1.87-.86-2.45-.57-.58-1.43-.87-2.59-.87s-2.14.26-2.82.79-1.16,1.09-1.44,1.68l-2.39-.85c.43-.99.99-1.77,1.71-2.32.72-.56,1.5-.95,2.34-1.17.85-.23,1.69-.34,2.51-.34.53,0,1.13.06,1.81.19.69.12,1.35.37,1.99.76.65.38,1.18.96,1.61,1.74.43.77.64,1.81.64,3.11v10.78h-2.51v-2.22h-.13c-.17.36-.46.74-.85,1.14-.4.41-.93.75-1.59,1.03-.66.28-1.47.43-2.42.43ZM544.64,560.18c.99,0,1.83-.2,2.52-.59.69-.39,1.21-.89,1.55-1.51.35-.62.53-1.27.53-1.95v-2.3c-.11.13-.34.25-.7.35-.36.1-.77.19-1.24.27-.46.07-.91.14-1.35.19-.43.05-.79.09-1.06.13-.65.09-1.26.22-1.83.42-.56.18-1.02.47-1.36.84-.34.37-.51.87-.51,1.51,0,.87.32,1.53.97,1.98.65.44,1.48.66,2.48.66ZM565.12,562.06v-21.82h2.64v9.72h11.63v-9.72h2.64v21.82h-2.64v-9.76h-11.63v9.76h-2.64ZM591.81,562.44c-1.04,0-1.98-.2-2.82-.59-.85-.4-1.52-.97-2.01-1.72-.5-.75-.75-1.66-.75-2.73,0-.94.18-1.7.55-2.28.37-.59.86-1.05,1.48-1.39.62-.33,1.3-.58,2.05-.75.75-.17,1.51-.3,2.27-.4.99-.13,1.8-.22,2.42-.29.62-.07,1.08-.19,1.36-.35.29-.16.44-.45.44-.85v-.09c0-1.05-.29-1.87-.86-2.45-.57-.58-1.43-.87-2.59-.87s-2.14.26-2.82.79c-.68.53-1.16,1.09-1.44,1.68l-2.39-.85c.43-.99.99-1.77,1.71-2.32.72-.56,1.5-.95,2.34-1.17.85-.23,1.69-.34,2.51-.34.53,0,1.13.06,1.81.19.69.12,1.35.37,1.99.76.65.38,1.18.96,1.61,1.74.43.77.64,1.81.64,3.11v10.78h-2.52v-2.22h-.13c-.17.36-.45.74-.85,1.14-.4.41-.93.75-1.59,1.03-.66.28-1.47.43-2.42.43ZM592.19,560.18c.99,0,1.83-.2,2.51-.59.69-.39,1.21-.89,1.56-1.51.35-.62.53-1.27.53-1.95v-2.3c-.11.13-.34.25-.7.35-.35.1-.77.19-1.23.27-.46.07-.91.14-1.35.19-.43.05-.78.09-1.05.13-.65.09-1.26.22-1.83.42-.56.18-1.01.47-1.36.84-.34.37-.51.87-.51,1.51,0,.87.32,1.53.97,1.98.65.44,1.48.66,2.48.66ZM603.9,562.06v-16.36h2.43v2.47h.17c.3-.81.84-1.47,1.62-1.97.78-.5,1.66-.76,2.64-.76.18,0,.42,0,.69.01.28,0,.49.02.63.03v2.56c-.09-.02-.28-.05-.59-.1-.3-.05-.61-.07-.95-.07-.8,0-1.51.17-2.13.5-.62.33-1.11.78-1.47,1.36-.36.58-.53,1.23-.53,1.97v10.36h-2.51ZM615.06,562.06v-16.36h2.43v2.47h.17c.3-.81.84-1.47,1.62-1.97.78-.5,1.66-.76,2.64-.76.18,0,.41,0,.69.01.28,0,.49.02.63.03v2.56c-.09-.02-.28-.05-.59-.1-.3-.05-.61-.07-.95-.07-.8,0-1.51.17-2.13.5-.62.33-1.11.78-1.47,1.36-.36.58-.53,1.23-.53,1.97v10.36h-2.51ZM626.22,562.06v-16.36h2.51v16.36h-2.51ZM627.5,542.97c-.49,0-.91-.17-1.27-.5-.35-.33-.52-.74-.52-1.2s.17-.87.52-1.2c.36-.33.78-.5,1.27-.5s.91.17,1.26.5c.35.33.53.73.53,1.2s-.18.87-.53,1.2c-.35.33-.77.5-1.26.5ZM644.93,549.36l-2.26.64c-.14-.38-.35-.74-.63-1.1-.27-.36-.64-.66-1.11-.89-.47-.23-1.07-.35-1.8-.35-1,0-1.84.23-2.5.69-.66.46-.99,1.03-.99,1.74,0,.62.23,1.12.68,1.48.45.36,1.16.66,2.13.91l2.43.6c1.46.35,2.55.9,3.27,1.63.72.72,1.08,1.66,1.08,2.8,0,.94-.27,1.77-.81,2.51-.53.74-1.28,1.32-2.24,1.75-.96.43-2.07.64-3.35.64-1.67,0-3.05-.36-4.14-1.09-1.09-.72-1.79-1.78-2.08-3.17l2.39-.6c.23.88.66,1.54,1.29,1.98.64.44,1.47.66,2.5.66,1.17,0,2.1-.25,2.79-.75.7-.5,1.04-1.11,1.04-1.81,0-.57-.2-1.04-.6-1.43-.4-.39-1.01-.68-1.83-.87l-2.73-.64c-1.5-.36-2.6-.91-3.3-1.65-.7-.75-1.04-1.69-1.04-2.82,0-.92.26-1.74.78-2.45.53-.71,1.24-1.27,2.14-1.67.91-.4,1.94-.61,3.09-.61,1.62,0,2.89.36,3.81,1.07.93.71,1.59,1.65,1.98,2.81Z"/>
  </g>
  <g>
    <rect class="cls-1" x="484" y="600.25" width="905.12" height="59.33" rx="20" ry="20"/>
    <path d="M505.98,640.66v-21.82h2.64v19.47h10.14v2.34h-12.78ZM532.82,633.97v-9.67h2.52v16.36h-2.52v-2.77h-.17c-.38.83-.98,1.54-1.79,2.12-.81.58-1.83.86-3.07.86-1.02,0-1.93-.22-2.73-.67-.8-.46-1.42-1.14-1.88-2.05-.45-.92-.68-2.07-.68-3.46v-10.4h2.51v10.23c0,1.19.33,2.15,1,2.86.67.71,1.53,1.07,2.58,1.07.62,0,1.26-.16,1.91-.48.65-.32,1.2-.81,1.64-1.47.45-.66.67-1.5.67-2.52ZM546.59,641c-1.53,0-2.86-.36-3.96-1.09-1.11-.72-1.96-1.72-2.56-2.99-.6-1.27-.9-2.72-.9-4.36s.31-3.13.92-4.4c.62-1.28,1.48-2.28,2.58-2.99,1.11-.72,2.4-1.09,3.88-1.09,1.15,0,2.19.21,3.11.64.92.43,1.68,1.02,2.27,1.79.59.77.95,1.66,1.1,2.68h-2.51c-.19-.75-.62-1.41-1.28-1.98-.65-.58-1.53-.87-2.64-.87-.98,0-1.84.26-2.58.77-.73.5-1.3,1.22-1.72,2.14-.4.92-.61,1.99-.61,3.23s.2,2.36.6,3.3c.41.94.97,1.66,1.71,2.18.74.52,1.6.78,2.6.78.65,0,1.25-.11,1.78-.34.53-.23.98-.55,1.35-.98.37-.43.63-.94.79-1.53h2.51c-.14.97-.49,1.84-1.05,2.61-.55.77-1.29,1.38-2.21,1.83-.91.45-1.97.67-3.17.67ZM561.51,641.05c-1.04,0-1.98-.2-2.82-.59-.85-.4-1.52-.97-2.01-1.72-.5-.75-.75-1.66-.75-2.73,0-.94.18-1.7.55-2.28.37-.59.86-1.05,1.48-1.38.62-.33,1.3-.58,2.05-.75.75-.17,1.51-.31,2.27-.4.99-.13,1.8-.22,2.42-.29.62-.07,1.08-.19,1.36-.35.29-.16.44-.45.44-.85v-.09c0-1.05-.29-1.87-.86-2.45-.57-.58-1.43-.87-2.59-.87s-2.14.26-2.82.79c-.68.53-1.16,1.09-1.44,1.68l-2.39-.85c.43-.99.99-1.77,1.7-2.32.72-.56,1.5-.95,2.34-1.17.85-.23,1.69-.34,2.52-.34.52,0,1.13.06,1.81.19.69.12,1.35.37,1.99.76.65.38,1.18.96,1.61,1.74.43.77.64,1.81.64,3.11v10.78h-2.51v-2.22h-.13c-.17.35-.46.73-.85,1.14-.4.41-.93.75-1.59,1.03-.66.29-1.47.43-2.42.43ZM561.9,638.79c1,0,1.83-.2,2.51-.59.69-.39,1.21-.9,1.56-1.51.36-.62.53-1.27.53-1.95v-2.3c-.11.13-.34.24-.7.35-.36.1-.77.19-1.24.27-.46.07-.91.13-1.35.19-.43.05-.79.09-1.05.13-.65.09-1.26.22-1.83.42-.56.18-1.02.47-1.36.84-.34.37-.51.87-.51,1.51,0,.87.32,1.53.97,1.98.65.44,1.48.66,2.48.66ZM585.19,627.96l-2.26.64c-.14-.38-.35-.74-.63-1.1-.27-.36-.64-.66-1.11-.89-.47-.23-1.07-.35-1.8-.35-1,0-1.84.23-2.5.69-.66.45-.99,1.03-.99,1.74,0,.62.23,1.12.68,1.48.45.36,1.16.66,2.13.91l2.43.6c1.46.35,2.55.9,3.27,1.63.72.72,1.08,1.66,1.08,2.8,0,.94-.27,1.78-.81,2.51-.53.74-1.28,1.32-2.24,1.75-.96.43-2.07.64-3.35.64-1.67,0-3.05-.36-4.14-1.09-1.09-.72-1.79-1.78-2.08-3.17l2.39-.6c.23.88.66,1.54,1.29,1.98.64.44,1.47.66,2.5.66,1.17,0,2.1-.25,2.79-.75.7-.5,1.04-1.11,1.04-1.81,0-.57-.2-1.04-.6-1.43-.4-.39-1.01-.68-1.83-.87l-2.73-.64c-1.5-.36-2.6-.91-3.3-1.65-.7-.75-1.04-1.69-1.04-2.82,0-.92.26-1.74.78-2.45.53-.71,1.24-1.27,2.14-1.67.91-.4,1.94-.61,3.09-.61,1.62,0,2.89.35,3.81,1.07.93.71,1.59,1.65,1.98,2.81ZM602.02,640.66l-5.97-21.82h2.68l4.56,17.77h.21l4.65-17.77h2.98l4.64,17.77h.21l4.56-17.77h2.68l-5.97,21.82h-2.73l-4.82-17.39h-.17l-4.82,17.39h-2.73ZM629.48,641.05c-1.04,0-1.98-.2-2.82-.59-.84-.4-1.52-.97-2.01-1.72-.5-.75-.75-1.66-.75-2.73,0-.94.18-1.7.55-2.28.37-.59.86-1.05,1.48-1.38.62-.33,1.3-.58,2.04-.75.75-.17,1.51-.31,2.27-.4.99-.13,1.8-.22,2.42-.29.62-.07,1.08-.19,1.36-.35.29-.16.44-.45.44-.85v-.09c0-1.05-.29-1.87-.86-2.45-.57-.58-1.43-.87-2.59-.87s-2.14.26-2.82.79c-.68.53-1.16,1.09-1.44,1.68l-2.39-.85c.43-.99.99-1.77,1.7-2.32.72-.56,1.5-.95,2.34-1.17.85-.23,1.69-.34,2.51-.34.53,0,1.13.06,1.81.19.69.12,1.35.37,1.99.76.65.38,1.18.96,1.61,1.74.43.77.64,1.81.64,3.11v10.78h-2.51v-2.22h-.13c-.17.35-.45.73-.85,1.14-.4.41-.93.75-1.59,1.03-.66.29-1.47.43-2.42.43ZM629.87,638.79c.99,0,1.83-.2,2.51-.59.69-.39,1.21-.9,1.56-1.51.36-.62.53-1.27.53-1.95v-2.3c-.11.13-.34.24-.7.35-.36.1-.77.19-1.24.27-.46.07-.91.13-1.35.19-.43.05-.78.09-1.05.13-.65.09-1.27.22-1.83.42-.56.18-1.02.47-1.36.84-.34.37-.51.87-.51,1.51,0,.87.32,1.53.97,1.98.65.44,1.48.66,2.48.66ZM644.09,618.84v21.82h-2.52v-21.82h2.52ZM651.03,634.7l-.04-3.11h.51l7.16-7.29h3.11l-7.63,7.71h-.21l-2.9,2.68ZM648.69,640.66v-21.82h2.51v21.82h-2.51ZM659.09,640.66l-6.39-8.1,1.79-1.75,7.8,9.84h-3.2ZM671.2,641c-1.58,0-2.94-.35-4.08-1.04-1.14-.7-2.01-1.68-2.63-2.94-.61-1.27-.92-2.74-.92-4.41s.3-3.15.92-4.43c.62-1.28,1.48-2.29,2.58-3,1.11-.72,2.4-1.09,3.88-1.09.85,0,1.69.14,2.53.43.83.28,1.59.74,2.27,1.38.68.63,1.22,1.47,1.63,2.52.4,1.04.61,2.33.61,3.86v1.07h-12.61v-2.17h10.06c0-.92-.18-1.75-.55-2.47-.36-.73-.88-1.3-1.56-1.72-.67-.42-1.46-.63-2.36-.63-1,0-1.87.25-2.6.75-.72.49-1.28,1.13-1.67,1.92-.39.79-.59,1.63-.59,2.54v1.45c0,1.24.21,2.28.64,3.14.43.85,1.03,1.5,1.8,1.95.77.44,1.66.66,2.67.66.66,0,1.26-.09,1.79-.28.54-.19,1.01-.48,1.39-.85.39-.38.69-.86.91-1.43l2.43.68c-.26.82-.69,1.55-1.29,2.17-.6.62-1.35,1.1-2.24,1.45-.89.34-1.89.51-2.99.51ZM681.8,640.66v-16.36h2.43v2.47h.17c.3-.81.84-1.47,1.62-1.97.78-.5,1.66-.76,2.64-.76.18,0,.42,0,.69.01.28,0,.49.02.63.03v2.56c-.09-.02-.28-.05-.59-.1-.3-.05-.61-.07-.95-.07-.8,0-1.51.17-2.13.5-.62.33-1.11.78-1.47,1.36-.36.58-.53,1.23-.53,1.97v10.36h-2.51Z"/>
  </g>
  <g>
    <rect class="cls-1" x="484" y="678.85" width="905.12" height="59.33" rx="20" ry="20"/>
    <path d="M506.87,719.27h-2.77l8.01-21.82h2.73l8.01,21.82h-2.77l-6.52-18.37h-.17l-6.52,18.37ZM507.89,710.75h11.17v2.34h-11.17v-2.34ZM537.24,702.91l-6.05,16.36h-2.56l-6.05-16.36h2.73l4.52,13.04h.17l4.52-13.04h2.73ZM544.87,719.65c-1.04,0-1.98-.2-2.82-.59-.84-.4-1.52-.97-2.01-1.72-.5-.75-.74-1.66-.74-2.73,0-.94.18-1.7.55-2.28.37-.59.86-1.05,1.48-1.38.62-.33,1.3-.58,2.05-.75.75-.17,1.51-.3,2.27-.4.99-.13,1.8-.22,2.42-.29.62-.07,1.08-.19,1.36-.35.29-.16.44-.45.44-.85v-.09c0-1.05-.29-1.87-.86-2.45-.57-.58-1.43-.87-2.59-.87s-2.14.26-2.82.79c-.68.53-1.16,1.09-1.44,1.68l-2.39-.85c.43-.99,1-1.77,1.71-2.32.72-.56,1.5-.95,2.34-1.17.85-.23,1.69-.34,2.51-.34.53,0,1.13.06,1.81.19.69.12,1.35.37,1.99.76.65.38,1.18.96,1.61,1.74.43.77.64,1.81.64,3.11v10.78h-2.51v-2.22h-.13c-.17.35-.46.73-.85,1.14-.4.41-.93.75-1.59,1.03-.66.28-1.47.43-2.42.43ZM545.26,717.4c.99,0,1.83-.2,2.51-.59.69-.39,1.21-.9,1.55-1.51.36-.62.53-1.27.53-1.95v-2.3c-.11.13-.34.24-.7.35-.35.1-.77.19-1.24.27-.46.07-.91.13-1.35.19-.43.05-.79.09-1.05.13-.65.09-1.26.22-1.83.42-.56.18-1.02.47-1.36.84-.34.37-.51.87-.51,1.51,0,.87.32,1.53.97,1.98.65.44,1.48.66,2.48.66ZM565.74,697.45h3.15l7.42,18.11h.26l7.41-18.11h3.15v21.82h-2.47v-16.58h-.21l-6.82,16.58h-2.39l-6.82-16.58h-.21v16.58h-2.47v-21.82ZM592.09,719.27v-16.36h2.51v16.36h-2.51ZM593.37,700.18c-.49,0-.91-.17-1.27-.5-.35-.33-.52-.73-.52-1.2s.17-.87.52-1.2c.36-.33.78-.5,1.27-.5s.91.17,1.26.5c.36.33.53.74.53,1.2s-.18.87-.53,1.2c-.35.33-.77.5-1.26.5ZM606.33,702.91v2.13h-8.48v-2.13h8.48ZM600.32,698.99h2.51v15.6c0,.71.1,1.24.31,1.6.21.35.48.58.81.7.33.11.68.17,1.06.17.28,0,.5-.01.68-.04.18-.03.32-.06.43-.08l.51,2.26c-.17.06-.41.13-.71.19-.3.07-.69.11-1.16.11-.71,0-1.41-.15-2.09-.46-.67-.31-1.24-.77-1.68-1.4-.44-.62-.66-1.41-.66-2.37v-16.28ZM616.58,719.61c-1.53,0-2.86-.36-3.96-1.09-1.11-.72-1.96-1.72-2.56-2.99-.6-1.27-.9-2.72-.9-4.36s.3-3.13.92-4.4c.62-1.28,1.48-2.28,2.58-2.99,1.11-.73,2.4-1.09,3.88-1.09,1.15,0,2.19.21,3.11.64.92.43,1.68,1.02,2.27,1.79.59.77.95,1.66,1.1,2.68h-2.51c-.19-.75-.62-1.41-1.28-1.98-.65-.58-1.54-.87-2.64-.87-.98,0-1.84.25-2.58.77-.73.5-1.3,1.22-1.72,2.14-.4.92-.61,1.99-.61,3.23s.2,2.36.6,3.3c.4.94.97,1.67,1.7,2.18.74.52,1.6.78,2.6.78.65,0,1.25-.11,1.78-.34.53-.23.98-.55,1.35-.98.37-.43.63-.94.79-1.53h2.51c-.14.97-.49,1.84-1.05,2.61-.55.77-1.29,1.38-2.21,1.83-.91.45-1.97.67-3.17.67ZM629.2,709.43v9.84h-2.51v-21.82h2.51v8.01h.21c.38-.85.96-1.52,1.73-2.01.77-.5,1.8-.76,3.09-.76,1.11,0,2.09.22,2.93.67.84.44,1.49,1.12,1.95,2.03.47.91.7,2.07.7,3.47v10.4h-2.52v-10.23c0-1.3-.34-2.31-1.01-3.02-.67-.72-1.59-1.08-2.78-1.08-.82,0-1.56.17-2.22.52-.65.35-1.16.85-1.53,1.52-.37.67-.55,1.48-.55,2.43ZM651.27,719.61c-1.58,0-2.94-.35-4.08-1.04-1.14-.7-2.01-1.68-2.63-2.94-.61-1.26-.92-2.73-.92-4.41s.31-3.15.92-4.43c.62-1.29,1.48-2.29,2.58-3,1.11-.73,2.4-1.09,3.88-1.09.85,0,1.69.14,2.53.43.83.28,1.59.75,2.27,1.39.68.63,1.22,1.47,1.63,2.51.4,1.04.61,2.33.61,3.86v1.07h-12.61v-2.17h10.06c0-.92-.18-1.75-.55-2.47-.36-.72-.88-1.3-1.56-1.71-.67-.42-1.46-.63-2.36-.63-1,0-1.87.25-2.6.74-.73.49-1.28,1.13-1.67,1.92-.39.79-.59,1.63-.59,2.54v1.45c0,1.24.21,2.28.64,3.14.43.85,1.03,1.5,1.8,1.95.77.44,1.66.66,2.67.66.66,0,1.26-.09,1.79-.28.54-.19,1-.48,1.39-.85.39-.38.69-.86.91-1.43l2.43.68c-.26.82-.68,1.55-1.29,2.17-.6.62-1.35,1.1-2.24,1.45-.89.34-1.89.51-2.99.51ZM664.39,697.45v21.82h-2.51v-21.82h2.51ZM671.51,697.45v21.82h-2.51v-21.82h2.51Z"/>
  </g>
  <g>
    <rect class="cls-1" x="484" y="757.46" width="905.12" height="59.33" rx="20" ry="20"/>
    <path d="M505.98,797.88v-21.82h13.17v2.34h-10.53v7.37h9.84v2.34h-9.84v7.42h10.7v2.34h-13.34ZM530.68,781.51v2.13h-8.48v-2.13h8.48ZM524.67,777.59h2.51v15.6c0,.71.1,1.24.31,1.6.21.35.48.58.81.7.33.11.69.17,1.05.17.28,0,.5-.02.68-.04.18-.04.32-.06.43-.08l.51,2.26c-.17.06-.41.13-.71.19-.31.07-.69.11-1.16.11-.71,0-1.41-.15-2.09-.46-.67-.3-1.24-.77-1.68-1.39-.44-.62-.66-1.41-.66-2.37v-16.28ZM537.33,788.03v9.84h-2.51v-21.82h2.51v8.01h.21c.38-.85.96-1.52,1.73-2.01.77-.5,1.8-.76,3.09-.76,1.11,0,2.09.22,2.93.67.84.44,1.49,1.12,1.95,2.03.47.91.7,2.07.7,3.47v10.4h-2.52v-10.23c0-1.3-.34-2.3-1.01-3.02-.67-.72-1.59-1.08-2.78-1.08-.82,0-1.56.17-2.22.52-.65.35-1.16.86-1.53,1.52-.37.67-.55,1.48-.55,2.43ZM557.35,798.26c-1.04,0-1.98-.2-2.82-.59-.85-.4-1.52-.97-2.01-1.72-.5-.75-.75-1.66-.75-2.73,0-.94.18-1.7.55-2.28.37-.59.86-1.05,1.48-1.39.62-.33,1.3-.58,2.04-.75.75-.17,1.51-.3,2.27-.4.99-.13,1.8-.22,2.42-.29.62-.07,1.08-.19,1.36-.35.29-.16.44-.45.44-.85v-.08c0-1.05-.29-1.87-.86-2.45-.57-.58-1.43-.87-2.59-.87s-2.14.26-2.82.79c-.68.53-1.16,1.09-1.44,1.68l-2.39-.85c.43-.99.99-1.77,1.7-2.32.72-.56,1.5-.95,2.34-1.17.85-.23,1.69-.34,2.51-.34.53,0,1.13.06,1.81.19.69.12,1.35.37,1.99.76.65.38,1.18.96,1.61,1.74.43.77.64,1.81.64,3.11v10.78h-2.52v-2.21h-.13c-.17.35-.45.73-.85,1.14-.4.41-.93.75-1.59,1.03-.66.28-1.47.43-2.42.43ZM557.74,796c.99,0,1.83-.19,2.51-.58.69-.39,1.21-.9,1.56-1.51.35-.62.53-1.27.53-1.95v-2.3c-.11.13-.34.24-.7.35-.35.1-.77.19-1.24.27-.46.07-.91.14-1.35.19-.43.05-.78.09-1.05.13-.65.08-1.26.22-1.83.41-.56.18-1.01.46-1.36.84-.34.37-.51.87-.51,1.51,0,.87.32,1.53.97,1.98.65.44,1.48.66,2.48.66ZM571.96,788.03v9.84h-2.51v-16.36h2.43v2.56h.21c.38-.83.96-1.5,1.75-2,.78-.51,1.79-.77,3.03-.77,1.11,0,2.08.23,2.91.68.83.45,1.48,1.13,1.94,2.04.46.91.69,2.06.69,3.45v10.4h-2.51v-10.23c0-1.28-.33-2.29-1-3-.67-.73-1.58-1.09-2.75-1.09-.8,0-1.52.17-2.15.52-.62.35-1.12.86-1.48,1.52-.36.67-.54,1.48-.54,2.43ZM595.77,797.88v-21.82h7.37c1.7,0,3.1.29,4.2.87,1.09.58,1.9,1.37,2.43,2.38.53,1.01.79,2.16.79,3.44s-.26,2.42-.79,3.42c-.53.99-1.33,1.78-2.42,2.34-1.09.56-2.47.84-4.16.84h-5.97v-2.39h5.88c1.16,0,2.1-.17,2.81-.51.72-.34,1.24-.82,1.55-1.45.33-.63.49-1.39.49-2.26s-.16-1.64-.49-2.29c-.33-.65-.85-1.16-1.57-1.51-.72-.36-1.66-.54-2.84-.54h-4.65v19.47h-2.64ZM606.04,788.08l5.37,9.8h-3.07l-5.28-9.8h2.98ZM621.09,798.22c-1.48,0-2.77-.35-3.89-1.05-1.11-.7-1.98-1.69-2.6-2.95-.62-1.26-.93-2.74-.93-4.43s.31-3.19.93-4.46c.62-1.27,1.49-2.26,2.6-2.96,1.11-.7,2.41-1.05,3.89-1.05s2.77.35,3.88,1.05c1.11.7,1.98,1.69,2.6,2.96.62,1.27.94,2.76.94,4.46s-.31,3.17-.94,4.43c-.62,1.26-1.48,2.25-2.6,2.95-1.11.7-2.4,1.05-3.88,1.05ZM621.09,795.96c1.12,0,2.05-.29,2.77-.86.73-.58,1.26-1.33,1.61-2.27.35-.94.52-1.95.52-3.05s-.17-2.11-.52-3.06c-.35-.94-.88-1.71-1.61-2.29-.72-.58-1.65-.87-2.77-.87s-2.05.29-2.77.87c-.72.58-1.26,1.35-1.61,2.29-.35.95-.52,1.96-.52,3.06s.17,2.11.52,3.05c.35.94.88,1.69,1.61,2.27.72.58,1.65.86,2.77.86ZM632.68,797.88v-21.82h2.51v8.05h.21c.18-.28.44-.65.77-1.09.33-.45.81-.85,1.43-1.19.62-.35,1.47-.53,2.53-.53,1.38,0,2.59.34,3.64,1.03,1.05.69,1.87,1.67,2.46,2.93.59,1.26.88,2.76.88,4.47s-.29,3.23-.88,4.51c-.59,1.26-1.41,2.24-2.45,2.94-1.04.69-2.25,1.03-3.61,1.03-1.05,0-1.89-.17-2.53-.52-.63-.35-1.12-.76-1.46-1.2-.34-.46-.6-.83-.79-1.13h-.3v2.51h-2.43ZM635.16,789.7c0,1.23.18,2.33.54,3.27.36.94.89,1.67,1.59,2.2.7.53,1.55.79,2.56.79s1.93-.28,2.63-.83c.71-.56,1.24-1.31,1.6-2.26.36-.95.54-2.01.54-3.17s-.18-2.19-.53-3.11c-.35-.93-.88-1.67-1.59-2.2-.7-.55-1.59-.82-2.65-.82s-1.88.26-2.58.78c-.7.51-1.22,1.23-1.58,2.15-.35.92-.53,1.99-.53,3.21ZM657.84,798.22c-1.58,0-2.94-.35-4.08-1.04-1.14-.7-2.01-1.68-2.63-2.94-.61-1.26-.92-2.73-.92-4.41s.3-3.15.92-4.43c.62-1.29,1.48-2.29,2.58-3.01,1.11-.72,2.4-1.09,3.88-1.09.85,0,1.69.14,2.53.43s1.59.75,2.27,1.39c.68.63,1.22,1.47,1.63,2.51.4,1.04.61,2.33.61,3.86v1.07h-12.61v-2.17h10.06c0-.92-.18-1.75-.55-2.47-.36-.72-.88-1.3-1.55-1.71-.67-.42-1.46-.63-2.36-.63-1,0-1.87.25-2.6.75-.72.49-1.28,1.13-1.67,1.92-.39.79-.59,1.63-.59,2.54v1.45c0,1.24.21,2.28.64,3.14.43.85,1.03,1.5,1.8,1.95.77.44,1.66.66,2.67.66.66,0,1.26-.09,1.79-.28.54-.19,1.01-.48,1.4-.85.39-.38.69-.86.91-1.43l2.43.68c-.26.82-.68,1.55-1.29,2.17-.6.62-1.35,1.1-2.24,1.45-.89.34-1.89.51-2.99.51ZM668.44,797.88v-16.36h2.43v2.47h.17c.3-.81.84-1.47,1.62-1.97.78-.51,1.66-.76,2.64-.76.18,0,.42,0,.69.01.28,0,.49.02.63.03v2.56c-.08-.02-.28-.05-.58-.1-.3-.05-.61-.08-.95-.08-.79,0-1.51.17-2.13.5-.62.33-1.11.78-1.47,1.36-.36.58-.53,1.23-.53,1.97v10.35h-2.51ZM687.74,781.51v2.13h-8.48v-2.13h8.48ZM681.73,777.59h2.51v15.6c0,.71.1,1.24.31,1.6.21.35.48.58.81.7.33.11.68.17,1.05.17.28,0,.5-.02.68-.04.18-.04.32-.06.43-.08l.51,2.26c-.17.06-.41.13-.71.19-.3.07-.69.11-1.16.11-.71,0-1.41-.15-2.09-.46-.67-.3-1.24-.77-1.68-1.39-.44-.62-.66-1.41-.66-2.37v-16.28ZM702.82,785.18l-2.26.64c-.14-.38-.35-.74-.63-1.1-.27-.36-.64-.66-1.11-.89-.47-.23-1.07-.35-1.8-.35-1,0-1.84.23-2.5.69-.66.45-.99,1.03-.99,1.74,0,.62.23,1.12.68,1.48.45.36,1.16.66,2.13.91l2.43.6c1.46.35,2.55.9,3.27,1.63.72.72,1.08,1.66,1.08,2.8,0,.94-.27,1.77-.81,2.51-.53.74-1.28,1.32-2.24,1.75-.96.43-2.07.64-3.35.64-1.67,0-3.05-.36-4.14-1.09-1.09-.72-1.79-1.78-2.08-3.17l2.39-.6c.23.88.66,1.54,1.29,1.98.64.44,1.47.66,2.5.66,1.17,0,2.1-.25,2.79-.74.7-.51,1.04-1.11,1.04-1.81,0-.57-.2-1.04-.6-1.43-.4-.39-1.01-.68-1.83-.87l-2.73-.64c-1.5-.36-2.6-.91-3.3-1.65-.7-.75-1.04-1.69-1.04-2.82,0-.92.26-1.74.78-2.45.53-.71,1.24-1.27,2.14-1.67.91-.4,1.94-.61,3.09-.61,1.62,0,2.89.36,3.81,1.07.93.71,1.59,1.65,1.98,2.81Z"/>
  </g>
  <g>
    <rect class="cls-1" x="484" y="836.07" width="905.12" height="59.33" rx="20" ry="20"/>
    <path d="M505.98,876.48v-21.82h2.64v19.48h10.14v2.34h-12.78ZM522.51,876.48v-16.36h2.51v16.36h-2.51ZM523.79,857.39c-.49,0-.91-.17-1.27-.5-.35-.33-.52-.74-.52-1.2s.17-.87.52-1.2c.35-.33.78-.5,1.27-.5s.91.17,1.26.5c.36.33.53.73.53,1.2s-.18.87-.53,1.2c-.35.33-.77.5-1.26.5ZM532.14,854.66v21.82h-2.51v-21.82h2.51ZM538.37,882.62c-.43,0-.81-.04-1.14-.11-.33-.06-.57-.13-.69-.19l.64-2.22c.61.16,1.15.21,1.62.17.47-.04.88-.25,1.25-.63.37-.37.71-.97,1.01-1.8l.47-1.28-6.05-16.45h2.73l4.52,13.04h.17l4.52-13.04h2.73l-6.95,18.75c-.31.85-.7,1.54-1.16,2.1-.46.56-1,.98-1.61,1.25-.6.27-1.29.4-2.05.4ZM563.12,876.48h-2.77l8.01-21.82h2.73l8.01,21.82h-2.77l-6.52-18.37h-.17l-6.52,18.37ZM564.14,867.96h11.16v2.34h-11.16v-2.34ZM588.34,876.82c-1.36,0-2.57-.34-3.61-1.03-1.04-.7-1.86-1.68-2.45-2.94-.59-1.27-.89-2.77-.89-4.51s.29-3.21.89-4.47c.59-1.27,1.41-2.24,2.46-2.93,1.05-.69,2.27-1.03,3.64-1.03,1.06,0,1.91.18,2.52.53.62.35,1.1.75,1.43,1.19.33.44.59.8.78,1.09h.21v-8.05h2.51v21.82h-2.43v-2.51h-.3c-.18.3-.45.67-.79,1.13-.34.45-.83.85-1.46,1.2-.63.35-1.47.52-2.53.52ZM588.68,874.57c1.01,0,1.86-.26,2.56-.79.7-.53,1.22-1.27,1.59-2.2.36-.95.54-2.04.54-3.27s-.18-2.29-.53-3.21c-.35-.92-.88-1.64-1.58-2.15-.7-.52-1.55-.78-2.58-.78s-1.95.27-2.66.82c-.7.54-1.23,1.28-1.59,2.21-.35.92-.52,1.96-.52,3.11s.18,2.22.53,3.17c.36.95.89,1.7,1.6,2.26.71.55,1.59.83,2.64.83ZM605.6,876.87c-1.04,0-1.98-.2-2.82-.59-.84-.4-1.52-.97-2.01-1.72-.5-.75-.75-1.66-.75-2.73,0-.94.18-1.7.55-2.28.37-.59.86-1.05,1.48-1.39.62-.33,1.3-.58,2.05-.75.75-.17,1.51-.31,2.27-.4.99-.13,1.8-.22,2.42-.29.62-.07,1.08-.19,1.36-.35.29-.16.44-.45.44-.85v-.09c0-1.05-.29-1.87-.86-2.45-.57-.58-1.43-.87-2.59-.87s-2.14.26-2.82.79c-.68.52-1.16,1.09-1.44,1.68l-2.39-.85c.43-.99.99-1.77,1.7-2.32.72-.56,1.5-.95,2.34-1.17.85-.23,1.69-.34,2.51-.34.53,0,1.13.06,1.81.19.69.12,1.35.37,1.99.76.65.38,1.18.96,1.61,1.74s.64,1.81.64,3.11v10.78h-2.51v-2.22h-.13c-.17.35-.45.73-.85,1.14-.4.41-.93.75-1.59,1.03-.66.28-1.47.43-2.42.43ZM605.99,874.61c.99,0,1.83-.19,2.51-.59.69-.39,1.21-.89,1.56-1.51.35-.62.53-1.27.53-1.95v-2.3c-.11.13-.34.25-.7.35-.35.1-.77.19-1.24.27-.46.07-.91.14-1.35.19-.43.05-.78.09-1.05.13-.65.09-1.27.22-1.83.42-.56.18-1.02.47-1.36.84-.34.37-.51.87-.51,1.51,0,.87.32,1.53.97,1.98.65.44,1.48.66,2.48.66ZM617.69,876.48v-16.36h2.43v2.56h.21c.34-.87.89-1.55,1.65-2.03.76-.49,1.67-.74,2.74-.74s1.98.24,2.7.74c.72.48,1.29,1.16,1.69,2.03h.17c.42-.85,1.05-1.52,1.89-2.01.84-.5,1.84-.76,3.01-.76,1.46,0,2.66.46,3.59,1.37.93.91,1.4,2.33,1.4,4.25v10.95h-2.51v-10.95c0-1.21-.33-2.07-.99-2.59-.66-.52-1.44-.78-2.33-.78-1.15,0-2.04.35-2.67,1.04-.63.69-.95,1.56-.95,2.62v10.65h-2.56v-11.21c0-.93-.3-1.68-.91-2.25-.6-.58-1.38-.86-2.33-.86-.65,0-1.26.17-1.83.52-.56.35-1.02.83-1.36,1.45-.34.61-.51,1.32-.51,2.12v10.23h-2.52ZM655.36,863.78l-2.26.64c-.14-.38-.35-.74-.63-1.1-.27-.36-.64-.66-1.11-.89-.47-.23-1.07-.35-1.8-.35-1,0-1.84.23-2.5.69-.66.46-.99,1.03-.99,1.74,0,.62.23,1.12.68,1.48.45.36,1.16.66,2.13.91l2.43.6c1.46.35,2.55.9,3.27,1.63.72.72,1.08,1.66,1.08,2.8,0,.94-.27,1.77-.81,2.51-.53.74-1.28,1.32-2.24,1.75-.96.43-2.07.64-3.35.64-1.67,0-3.05-.36-4.14-1.09-1.09-.72-1.79-1.78-2.08-3.17l2.39-.6c.23.88.66,1.54,1.29,1.98.64.44,1.47.66,2.5.66,1.17,0,2.1-.25,2.79-.74.7-.51,1.04-1.11,1.04-1.81,0-.57-.2-1.04-.6-1.43-.4-.39-1.01-.68-1.83-.87l-2.73-.64c-1.5-.36-2.6-.91-3.3-1.65-.7-.75-1.04-1.69-1.04-2.82,0-.92.26-1.74.78-2.45.53-.71,1.24-1.27,2.14-1.67.91-.4,1.94-.61,3.09-.61,1.62,0,2.89.36,3.81,1.07.93.71,1.59,1.65,1.98,2.81Z"/>
  </g>
  <g>
    <rect class="cls-1" x="484" y="914.67" width="905.12" height="59.33" rx="20" ry="20"/>
    <path d="M514.33,933.27h2.64v15.6c0,1.39-.26,2.58-.77,3.55-.51.97-1.23,1.71-2.16,2.22-.93.5-2.03.76-3.29.76-1.19,0-2.25-.22-3.19-.65-.93-.44-1.66-1.07-2.19-1.88-.53-.81-.8-1.77-.8-2.89h2.6c0,.62.15,1.16.46,1.62.31.45.74.81,1.28,1.07.54.26,1.15.38,1.84.38.76,0,1.41-.16,1.94-.48.53-.32.94-.79,1.22-1.41.28-.62.43-1.39.43-2.29v-15.6ZM526.74,955.47c-1.04,0-1.98-.2-2.82-.59-.84-.4-1.52-.97-2.01-1.72-.5-.75-.75-1.66-.75-2.73,0-.94.18-1.7.55-2.28.37-.59.86-1.05,1.48-1.38.62-.33,1.3-.58,2.05-.75.75-.17,1.51-.31,2.27-.4.99-.13,1.8-.22,2.42-.29.62-.07,1.08-.19,1.36-.35.29-.16.44-.45.44-.85v-.09c0-1.05-.29-1.87-.86-2.45-.57-.58-1.43-.87-2.59-.87s-2.14.26-2.82.79c-.68.53-1.16,1.09-1.44,1.68l-2.39-.85c.43-.99.99-1.77,1.7-2.32.72-.56,1.5-.95,2.34-1.17.85-.23,1.69-.34,2.51-.34.53,0,1.13.06,1.81.19.69.12,1.35.37,1.99.76.65.38,1.18.96,1.61,1.74s.64,1.81.64,3.11v10.78h-2.51v-2.22h-.13c-.17.35-.45.73-.85,1.14-.4.41-.93.75-1.59,1.03-.66.28-1.47.43-2.42.43ZM527.12,953.22c.99,0,1.83-.2,2.51-.59.69-.39,1.21-.9,1.55-1.51.36-.62.53-1.27.53-1.95v-2.3c-.11.13-.34.24-.7.35-.35.1-.77.19-1.24.27-.46.07-.91.14-1.35.19-.43.05-.79.09-1.05.13-.65.09-1.27.22-1.83.42-.56.18-1.02.47-1.36.84-.34.37-.51.87-.51,1.51,0,.87.32,1.53.97,1.98.65.44,1.48.66,2.48.66ZM538.83,955.09v-16.36h2.43v2.56h.21c.34-.87.89-1.55,1.65-2.04.76-.49,1.67-.73,2.74-.73s1.98.24,2.7.73c.72.48,1.29,1.16,1.69,2.04h.17c.42-.85,1.05-1.52,1.89-2.01.84-.51,1.84-.76,3.01-.76,1.46,0,2.66.46,3.59,1.38.93.91,1.4,2.33,1.4,4.25v10.95h-2.52v-10.95c0-1.21-.33-2.07-.99-2.59-.66-.52-1.44-.78-2.33-.78-1.15,0-2.04.35-2.67,1.04-.63.69-.95,1.56-.95,2.62v10.65h-2.56v-11.21c0-.93-.3-1.68-.9-2.25-.6-.58-1.38-.86-2.33-.86-.65,0-1.26.17-1.83.52-.56.35-1.02.83-1.36,1.45-.34.61-.51,1.32-.51,2.12v10.23h-2.51ZM571.76,955.43c-1.58,0-2.94-.35-4.08-1.04-1.14-.7-2.01-1.68-2.63-2.94-.61-1.26-.92-2.73-.92-4.41s.31-3.15.92-4.43c.62-1.29,1.48-2.29,2.58-3,1.11-.72,2.4-1.09,3.88-1.09.85,0,1.69.14,2.52.43s1.59.75,2.27,1.38c.68.63,1.22,1.47,1.63,2.52.4,1.04.61,2.33.61,3.86v1.07h-12.61v-2.17h10.06c0-.92-.18-1.75-.55-2.47-.36-.73-.88-1.3-1.55-1.72-.67-.42-1.46-.63-2.36-.63-1,0-1.87.25-2.6.75-.72.49-1.28,1.13-1.67,1.92-.39.79-.59,1.63-.59,2.54v1.45c0,1.24.21,2.28.64,3.14.43.85,1.03,1.5,1.8,1.95.77.44,1.66.66,2.67.66.66,0,1.26-.09,1.79-.28.54-.19,1.01-.48,1.4-.85.39-.38.69-.86.91-1.43l2.43.68c-.26.82-.68,1.55-1.29,2.17-.6.62-1.35,1.1-2.24,1.45-.89.34-1.89.51-2.99.51ZM593.95,942.39l-2.26.64c-.14-.38-.35-.74-.63-1.1-.27-.36-.64-.66-1.11-.89-.47-.23-1.07-.35-1.8-.35-1,0-1.84.23-2.5.69-.66.45-.99,1.03-.99,1.74,0,.62.23,1.12.68,1.48.46.36,1.17.66,2.13.91l2.43.6c1.46.36,2.55.9,3.27,1.63.72.72,1.08,1.66,1.08,2.8,0,.94-.27,1.78-.81,2.51-.53.74-1.28,1.32-2.24,1.75-.96.43-2.07.64-3.35.64-1.67,0-3.05-.36-4.14-1.09-1.09-.72-1.79-1.78-2.08-3.17l2.39-.6c.23.88.66,1.54,1.29,1.98.64.44,1.47.66,2.5.66,1.17,0,2.1-.25,2.79-.75.7-.5,1.04-1.11,1.04-1.81,0-.57-.2-1.04-.6-1.43-.4-.39-1.01-.68-1.83-.87l-2.73-.64c-1.5-.36-2.6-.91-3.3-1.65-.7-.75-1.04-1.69-1.04-2.82,0-.92.26-1.74.78-2.45.53-.71,1.24-1.27,2.14-1.67.91-.4,1.94-.61,3.09-.61,1.62,0,2.89.35,3.81,1.07.93.71,1.59,1.65,1.98,2.81ZM606.82,955.09v-21.82h7.37c1.71,0,3.11.31,4.2.93,1.09.61,1.9,1.44,2.43,2.48.53,1.04.79,2.21.79,3.49s-.26,2.45-.79,3.51c-.52,1.05-1.32,1.89-2.41,2.51-1.09.62-2.48.93-4.18.93h-5.28v-2.34h5.2c1.17,0,2.11-.2,2.82-.61.71-.4,1.23-.95,1.55-1.64.33-.7.49-1.48.49-2.36s-.16-1.65-.49-2.34c-.32-.69-.84-1.23-1.56-1.62-.72-.4-1.67-.6-2.85-.6h-4.65v19.47h-2.64ZM630.33,955.47c-1.04,0-1.98-.2-2.82-.59-.84-.4-1.52-.97-2.01-1.72-.5-.75-.74-1.66-.74-2.73,0-.94.18-1.7.55-2.28.37-.59.86-1.05,1.48-1.38.62-.33,1.3-.58,2.05-.75.75-.17,1.51-.31,2.27-.4.99-.13,1.8-.22,2.42-.29.62-.07,1.08-.19,1.36-.35.29-.16.44-.45.44-.85v-.09c0-1.05-.29-1.87-.86-2.45-.57-.58-1.43-.87-2.59-.87s-2.14.26-2.82.79c-.68.53-1.16,1.09-1.44,1.68l-2.39-.85c.43-.99.99-1.77,1.7-2.32.72-.56,1.5-.95,2.34-1.17.85-.23,1.69-.34,2.51-.34.53,0,1.13.06,1.81.19.69.12,1.35.37,1.99.76.65.38,1.18.96,1.61,1.74.43.77.64,1.81.64,3.11v10.78h-2.51v-2.22h-.13c-.17.35-.46.73-.85,1.14-.4.41-.93.75-1.59,1.03-.66.28-1.47.43-2.42.43ZM630.72,953.22c.99,0,1.83-.2,2.51-.59.69-.39,1.21-.9,1.55-1.51.36-.62.53-1.27.53-1.95v-2.3c-.11.13-.34.24-.7.35-.35.1-.77.19-1.24.27-.46.07-.91.14-1.35.19-.43.05-.78.09-1.05.13-.65.09-1.26.22-1.83.42-.56.18-1.02.47-1.36.84-.34.37-.51.87-.51,1.51,0,.87.32,1.53.97,1.98.65.44,1.48.66,2.48.66ZM642.42,955.09v-16.36h2.43v2.47h.17c.3-.81.84-1.47,1.62-1.97.78-.5,1.66-.76,2.64-.76.18,0,.42,0,.69.01.28,0,.49.02.63.03v2.56c-.09-.02-.28-.05-.59-.1-.3-.05-.61-.07-.95-.07-.8,0-1.51.17-2.13.5-.62.33-1.11.78-1.47,1.36-.36.58-.53,1.23-.53,1.97v10.36h-2.51ZM655.93,949.12l-.04-3.11h.51l7.16-7.29h3.11l-7.63,7.71h-.21l-2.9,2.68ZM653.58,955.09v-21.82h2.51v21.82h-2.51ZM663.98,955.09l-6.39-8.1,1.79-1.75,7.8,9.84h-3.2ZM676.09,955.43c-1.58,0-2.94-.35-4.08-1.04-1.14-.7-2.01-1.68-2.63-2.94-.61-1.26-.92-2.73-.92-4.41s.3-3.15.92-4.43c.62-1.29,1.48-2.29,2.58-3,1.11-.72,2.4-1.09,3.88-1.09.85,0,1.69.14,2.52.43.83.28,1.59.75,2.27,1.38.68.63,1.22,1.47,1.63,2.52.4,1.04.61,2.33.61,3.86v1.07h-12.61v-2.17h10.06c0-.92-.18-1.75-.55-2.47-.36-.73-.88-1.3-1.55-1.72-.67-.42-1.46-.63-2.36-.63-1,0-1.87.25-2.6.75-.72.49-1.28,1.13-1.67,1.92-.39.79-.59,1.63-.59,2.54v1.45c0,1.24.21,2.28.64,3.14.43.85,1.03,1.5,1.8,1.95.77.44,1.66.66,2.67.66.66,0,1.26-.09,1.79-.28.54-.19,1.01-.48,1.4-.85.39-.38.69-.86.91-1.43l2.43.68c-.25.82-.68,1.55-1.29,2.17-.6.62-1.35,1.1-2.24,1.45-.89.34-1.89.51-2.99.51ZM686.69,955.09v-16.36h2.43v2.47h.17c.3-.81.84-1.47,1.62-1.97.78-.5,1.66-.76,2.64-.76.18,0,.42,0,.69.01.28,0,.49.02.63.03v2.56c-.09-.02-.28-.05-.59-.1-.3-.05-.61-.07-.95-.07-.79,0-1.51.17-2.13.5-.62.33-1.11.78-1.47,1.36-.35.58-.53,1.23-.53,1.97v10.36h-2.51Z"/>
  </g>
  <rect class="cls-2" x="50" y="202" width="336" height="320" rx="30" ry="30"/>
  <path class="cls-1" d="M79.5,470h277c16.29,0,29.5,13.21,29.5,29.5h0c0,16.29-13.21,29.5-29.5,29.5H79.5c-16.29,0-29.5-13.21-29.5-29.5h0c0-16.29,13.21-29.5,29.5-29.5Z"/>
  <path d="M91.1,496h-2.64c-.16-.76-.43-1.43-.82-2-.38-.58-.85-1.06-1.41-1.45-.55-.4-1.15-.7-1.82-.89-.67-.2-1.36-.3-2.09-.3-1.32,0-2.52.33-3.59,1-1.07.67-1.91,1.65-2.55,2.95-.62,1.3-.94,2.89-.94,4.78s.31,3.48.94,4.78c.63,1.3,1.48,2.28,2.55,2.95,1.07.67,2.27,1,3.59,1,.72,0,1.42-.1,2.09-.3.67-.2,1.27-.49,1.82-.88.55-.4,1.02-.88,1.41-1.46.39-.58.66-1.25.82-2h2.64c-.2,1.11-.56,2.11-1.09,2.99-.53.88-1.18,1.63-1.96,2.25-.78.61-1.66,1.08-2.63,1.4-.97.32-2,.48-3.1.48-1.86,0-3.52-.45-4.96-1.36-1.45-.91-2.59-2.2-3.42-3.88-.83-1.68-1.25-3.67-1.25-5.97s.42-4.29,1.25-5.97c.83-1.68,1.97-2.97,3.42-3.88,1.45-.91,3.1-1.36,4.96-1.36,1.1,0,2.13.16,3.1.48.97.32,1.85.79,2.63,1.41.78.61,1.43,1.36,1.96,2.24.53.87.89,1.87,1.09,2.99ZM97.55,489.18v21.82h-2.51v-21.82h2.51ZM106.97,511.38c-1.04,0-1.98-.2-2.82-.59-.84-.4-1.52-.97-2.01-1.72-.5-.75-.75-1.66-.75-2.73,0-.94.18-1.7.55-2.28.37-.59.86-1.05,1.48-1.39.62-.33,1.3-.58,2.04-.74.75-.17,1.51-.31,2.27-.4.99-.13,1.8-.22,2.42-.29.62-.07,1.08-.19,1.36-.35.29-.16.44-.45.44-.85v-.08c0-1.05-.29-1.87-.86-2.45-.57-.58-1.43-.87-2.59-.87s-2.14.26-2.82.79c-.68.52-1.16,1.09-1.44,1.68l-2.39-.85c.43-.99.99-1.77,1.7-2.32.72-.56,1.5-.95,2.34-1.17.85-.23,1.69-.34,2.51-.34.53,0,1.13.06,1.81.19.69.12,1.35.37,1.99.76.65.38,1.18.96,1.61,1.74.43.77.64,1.81.64,3.11v10.78h-2.51v-2.22h-.13c-.17.36-.45.74-.85,1.14-.4.4-.93.75-1.59,1.03-.66.28-1.47.43-2.42.43ZM107.35,509.12c.99,0,1.83-.2,2.51-.59.69-.39,1.21-.89,1.56-1.51.36-.62.53-1.27.53-1.95v-2.3c-.11.13-.34.24-.7.35-.36.1-.77.19-1.24.27-.46.07-.91.14-1.35.19-.43.05-.78.09-1.05.13-.65.08-1.26.22-1.83.42-.56.18-1.01.46-1.36.84-.34.37-.51.87-.51,1.51,0,.87.32,1.53.97,1.98.65.44,1.48.66,2.48.66ZM130.65,498.3l-2.26.64c-.14-.38-.35-.74-.63-1.1-.27-.36-.64-.66-1.11-.89-.47-.23-1.07-.35-1.8-.35-1,0-1.84.23-2.5.69-.66.45-.99,1.03-.99,1.74,0,.62.23,1.12.68,1.48.46.36,1.17.66,2.13.91l2.43.6c1.46.36,2.55.9,3.27,1.63.72.73,1.08,1.66,1.08,2.8,0,.94-.27,1.78-.81,2.51-.53.74-1.28,1.32-2.24,1.75s-2.07.64-3.35.64c-1.67,0-3.05-.36-4.15-1.09-1.09-.72-1.79-1.78-2.08-3.17l2.39-.6c.23.88.66,1.54,1.29,1.98.64.44,1.47.66,2.5.66,1.17,0,2.1-.25,2.79-.75.7-.5,1.04-1.11,1.04-1.81,0-.57-.2-1.04-.6-1.43-.4-.39-1.01-.68-1.83-.87l-2.73-.64c-1.5-.35-2.6-.91-3.3-1.65-.7-.75-1.04-1.69-1.04-2.82,0-.92.26-1.74.78-2.45.53-.71,1.24-1.27,2.14-1.67.91-.4,1.94-.61,3.09-.61,1.62,0,2.89.36,3.81,1.07.93.71,1.59,1.65,1.98,2.81ZM146.32,498.3l-2.26.64c-.14-.38-.35-.74-.63-1.1-.27-.36-.64-.66-1.11-.89-.47-.23-1.07-.35-1.8-.35-1,0-1.84.23-2.5.69-.66.45-.99,1.03-.99,1.74,0,.62.23,1.12.68,1.48.46.36,1.17.66,2.13.91l2.43.6c1.46.36,2.55.9,3.27,1.63.72.73,1.08,1.66,1.08,2.8,0,.94-.27,1.78-.81,2.51-.53.74-1.28,1.32-2.24,1.75-.96.43-2.07.64-3.35.64-1.67,0-3.05-.36-4.14-1.09-1.09-.72-1.79-1.78-2.08-3.17l2.39-.6c.23.88.66,1.54,1.29,1.98.64.44,1.47.66,2.5.66,1.17,0,2.1-.25,2.79-.75.7-.5,1.04-1.11,1.04-1.81,0-.57-.2-1.04-.6-1.43-.4-.39-1.01-.68-1.83-.87l-2.73-.64c-1.5-.35-2.6-.91-3.3-1.65-.7-.75-1.04-1.69-1.04-2.82,0-.92.26-1.74.78-2.45.53-.71,1.24-1.27,2.14-1.67.91-.4,1.94-.61,3.09-.61,1.62,0,2.89.36,3.81,1.07.93.71,1.59,1.65,1.98,2.81ZM160.08,511h-2.77l8.01-21.82h2.73l8.01,21.82h-2.77l-6.52-18.37h-.17l-6.52,18.37ZM161.1,502.48h11.16v2.34h-11.16v-2.34Z"/>
</svg>